/* XPM */
static char *ammo[] = {
/* columns rows colors chars-per-pixel */
"75 39 64 1 ",
"  c None",
". c black",
"X c #040A06",
"o c #07140C",
"O c #0B1E12",
"+ c #0F2818",
"@ c #0F2918",
"# c #13331E",
"$ c #173D24",
"% c #1B472A",
"& c #1B482B",
"* c #1E5230",
"= c #1F5231",
"- c #225C36",
"; c #225F38",
": c #24643B",
"> c #26663C",
", c #276B3F",
"< c #286C40",
"1 c #2A7043",
"2 c #2E7B49",
"3 c #31854F",
"4 c #358F55",
"5 c #399A5B",
"6 c #3DA461",
"7 c #968916",
"8 c #9D8F17",
"9 c #A29417",
"0 c #A79817",
"q c #AA9C18",
"w c #AE9F19",
"e c #B1A219",
"r c #B4A51A",
"t c #BAAA1B",
"y c #BCAC1B",
"u c #BFAE1C",
"i c #AA9F34",
"p c #B8AC36",
"a c #BDB138",
"s c #C3B31D",
"d c #C6B51D",
"f c #C8B71E",
"g c #C2B539",
"h c #C9BC3C",
"j c #D0C23E",
"k c #D3C53F",
"l c #D9CA41",
"z c #E0D244",
"x c #E3D445",
"c c black",
"v c black",
"b c black",
"n c black",
"m c black",
"M c black",
"N c black",
"B c black",
"V c black",
"C c black",
"Z c black",
"A c black",
"S c black",
"D c black",
"F c black",
/* pixels */
"                     ...................................................   ",
"                     ...................................................   ",
"                     ...................................................   ",
"                  ...7w9...770...fff...fff...fff...fff...ffffffxxxxxxxxx...",
"                  ...777...euf...fff...fff...fff...fff...ffffffxxxxxxxxx...",
"                  ...777...fff...fff...fff...fff...fff...ffffffxxxxxxxxx...",
"...........................................................................",
"...........................................................................",
"...........................................................................",
"...666666666666666666666666666666666666666...<<<...fff...ffffffxxxxxxxxx...",
"...666666666666666666666666666666666666666...<<<...fff...ffffffxxxxxxxxx...",
"...666666666666666666666666666666666666666...<<<...fff...ffffffxxxxxxxxx...",
".............................................<<<...........................",
".............................................<<<...........................",
".............................................<<<...........................",
"...<<<<<<<<<<<<<<<<<<<<<<<<<<<<<<<<<<<<<<<...<<<...fff...ffffffxxxxxxxxx...",
"...<<<<<<<<<<<<<<<<<<<<<<<<<<<<<<<<<<<<<<<...<<<...fff...ffffffxxxxxxxxx...",
"...<<<<<<<<<<<<<<<<<<<<<<<<<<<<<<<<<<<<<<<...<<<...fff...ffffffxxxxxxxxx...",
"...666666666666666666666666666666666666<<<...<<<...........................",
"...6666666666666664--=36666666666666666<<<...<<<...........................",
"...6666666666666662X$OX1666666666666666<<<...<<<...........................",
"...666666666666666>&=X.$666666666666666<<<...<<<...fff...ffffffxxxxxzjpg...",
"...666666666666666o.o%..566666666666666<<<...<<<...fff...ffffffxxxlhiiii...",
"...666666666666664X.$1.X266666666666666<<<...<<<...fff...ffffffxkaiiiiii...",
"...66666666666666>..>6+.266666666666666<<<...<<<...........................",
"...66666666666666-OO26#+o56666666666666<<<...<<<...........................",
"...66666666666666##O66*@.:6666666666666<<<...<<<...........................",
"...66666666666663#.+22-1.+6666666666666<<<...<<<...fff...77777wlxxxxxpii...",
"...6666666666666$$X..X*1X.3666666666666<<<...<<<...fyw...778rsfxxxxxxkii...",
"...6666666666666X+o...O=-#3666666666666<<<...<<<...t77...0tdfffxxxxxzkii...",
"...6666666666661X$=66663=#+666666666666<<<...<<<...........................",
"...666666666666#..=66665O..-66666666666<<<...<<<...........................",
"...666666666666%$=266666-$=266666666666<<<...<<<...........................",
"...666666666666666666666666666666666666<<<...<<<<:=...777...fff...777...777",
"...666666666666666666666666666666666666<<<...<<<<,=...777...fdf...777...977",
"...666666666666666666666666666666666666<<<...<<<<<;...777...fsq...777...r77",
"...........................................................................",
"...........................................................................",
"..........................................................................."
};
