/* XPM */
static char *enemy2[] = {
/* columns rows colors chars-per-pixel */
"50 100 256 2 ",
"   c None",
".  c #170F07",
"X  c #1E150A",
"o  c #370804",
"O  c #251D0D",
"+  c #2E1D0C",
"@  c #3B140A",
"#  c #321E0E",
"$  c #2C220F",
"%  c #33210F",
"&  c #2E2510",
"*  c #352512",
"=  c #3A2614",
"-  c #342A13",
";  c #3C2D16",
":  c #332C1B",
">  c #3F2C19",
",  c #3F3017",
"<  c #3E3119",
"1  c #460000",
"2  c #4B0202",
"3  c #540303",
"4  c #570705",
"5  c #5F0808",
"6  c #49130C",
"7  c #411A0F",
"8  c #541004",
"9  c #650303",
"0  c #6D0202",
"q  c #650C0C",
"w  c #6A0909",
"e  c #730606",
"r  c #7B0B0B",
"t  c #412D17",
"y  c #4B2817",
"u  c #412E1A",
"i  c #552A16",
"p  c #5E2F1A",
"a  c #403017",
"s  c #45331B",
"d  c #4A361C",
"f  c #4D391D",
"g  c #523E1F",
"h  c #5F3F1E",
"j  c #61270C",
"k  c #62351D",
"l  c #673819",
"z  c #463520",
"x  c #4A3620",
"c  c #4E3A22",
"v  c #4E3E2E",
"b  c #533D21",
"n  c #593F21",
"m  c #533E2B",
"M  c #413B31",
"N  c #7D2921",
"B  c #564123",
"V  c #5C4324",
"C  c #57432A",
"Z  c #5C4629",
"A  c #5F492B",
"S  c #4C4438",
"D  c #5F4B37",
"F  c #524439",
"G  c #584D3C",
"H  c #644525",
"J  c #6B4727",
"K  c #6B4927",
"L  c #63472A",
"P  c #644C2C",
"I  c #6D4B2A",
"U  c #7A4324",
"Y  c #744D2A",
"T  c #784F2C",
"R  c #6A502F",
"E  c #72502E",
"W  c #7D522E",
"Q  c #654D31",
"!  c #6C4E34",
"~  c #614F3C",
"^  c #675333",
"/  c #6C5332",
"(  c #6B553E",
")  c #745332",
"_  c #7D5633",
"`  c #7B5836",
"'  c #72563A",
"]  c #735D3E",
"[  c #4E4E4E",
"{  c #5F5145",
"}  c #505050",
"|  c #65574A",
" . c #725C43",
".. c #6C5F54",
"X. c #796142",
"o. c #7A624E",
"O. c #6E6454",
"+. c #716455",
"@. c #7A695A",
"#. c #6D6D6D",
"$. c #736B64",
"%. c #7E7362",
"&. c gray45",
"*. c #7C7C7C",
"=. c #8A0606",
"-. c #870909",
";. c #802A17",
":. c #932B2B",
">. c #923329",
",. c #AA3131",
"<. c #A63E3E",
"1. c #894532",
"2. c #855632",
"3. c #875933",
"4. c #895936",
"5. c #8D5D36",
"6. c #855D3B",
"7. c #905E37",
"8. c #965339",
"9. c #965D3A",
"0. c #946139",
"q. c #9C643B",
"w. c #A0673E",
"e. c #A26A3F",
"r. c #A94141",
"t. c #8B6848",
"y. c #866B52",
"u. c #836E5A",
"i. c #9A695A",
"p. c #937557",
"a. c #A56C41",
"s. c #AA6F43",
"d. c #AE7145",
"f. c #AC754C",
"g. c #B47447",
"h. c #B77648",
"j. c #BB784A",
"k. c #A17553",
"l. c #8D7B63",
"z. c #857669",
"x. c #9B7969",
"c. c #A26961",
"v. c #C07A4B",
"b. c #9F8F7A",
"n. c #B08479",
"m. c #A99177",
"M. c #CE8657",
"N. c #DD9363",
"B. c #848484",
"V. c #8B8B8B",
"C. c #9E8E80",
"Z. c #959595",
"A. c gray62",
"S. c #AD9B88",
"D. c #B79F87",
"F. c #A29C94",
"G. c #BCA48C",
"H. c #AEA59A",
"J. c #B7A89A",
"K. c #A4A4A4",
"L. c #AEA9A2",
"P. c gray67",
"I. c #B8ADA2",
"U. c #BCB4AC",
"Y. c #B2B2B2",
"T. c #BCBCBC",
"R. c #C2A0A0",
"E. c #C0B5AA",
"W. c #CABBAF",
"Q. c #CFBFB2",
"!. c #C1C1C1",
"~. c gray79",
"^. c #D0CBC6",
"/. c #D2D2D2",
"(. c gray85",
"). c gray89",
"_. c #EAEAEA",
"`. c #F6F6F6",
"'. c black",
"]. c black",
"[. c black",
"{. c black",
"}. c black",
"|. c black",
" X c black",
".X c black",
"XX c black",
"oX c black",
"OX c black",
"+X c black",
"@X c black",
"#X c black",
"$X c black",
"%X c black",
"&X c black",
"*X c black",
"=X c black",
"-X c black",
";X c black",
":X c black",
">X c black",
",X c black",
"<X c black",
"1X c black",
"2X c black",
"3X c black",
"4X c black",
"5X c black",
"6X c black",
"7X c black",
"8X c black",
"9X c black",
"0X c black",
"qX c black",
"wX c black",
"eX c black",
"rX c black",
"tX c black",
"yX c black",
"uX c black",
"iX c black",
"pX c black",
"aX c black",
"sX c black",
"dX c black",
"fX c black",
"gX c black",
"hX c black",
"jX c black",
"kX c black",
"lX c black",
"zX c black",
"xX c black",
"cX c black",
"vX c black",
"bX c black",
"nX c black",
"mX c black",
"MX c black",
"NX c black",
"BX c black",
"VX c black",
"CX c black",
"ZX c black",
"AX c black",
"SX c black",
"DX c black",
"FX c black",
"GX c black",
"HX c black",
"JX c black",
"KX c black",
"LX c black",
"PX c black",
"IX c black",
"UX c black",
/* pixels */
"                                              3.q.q.q.7.Y                                           ",
"                                        T T T 2.q.q.9.5.T W                                         ",
"                                      J W 3.3.7.0.7.7.7.3.3.T                                       ",
"                                      I 3.3.4.5.5.5.5.4.4.3.W                                       ",
"                                      T 0.7.5.4.3.3.4.2.4.7.7.                                      ",
"                                      T 5.7.5.4.3.3.4.4.5.7.7.                                      ",
"                                  W Y W g.q.q.Y J J J I 7.w.g.w.                                    ",
"                                  W 5.q.j.g.s.7.W 2.T 3.w.h.v.e.T                                   ",
"                                  W 0.s.h.g.g.0.2.3.2.q.g.g.h.g.T                                   ",
"                                  3.Y H U 8.8.a.g.g.e.e.9.8.l l 5.                                  ",
"                                      H ;.r.<.4.6.5.5.2.<.<.j l                                     ",
"                                      I r ,.<.j s s s y >.:.9                                       ",
"                                      4.N 3 3 l ^ P ^ J 8 2 1.                                      ",
"                                      5.l 2 1 B P H L A 6 3 I                                       ",
"                                      W Y p p I 7.4.3.W k k 3.2.                                B.  ",
"                                  7.3.I 2.J J T 5.5.0.W J J q.2.7.5.W                         Y.B.  ",
"                                  7.W W ] f x y.b.x.z.@.C d w.4.7.3.W W                     Z.Y.    ",
"  P.                        q.0.0.5.W T ] % + C.~.T.L.S.m > e.5.7.3.W T 2.T           Z.Y.P.Z.      ",
"    K.K.D.              e.e.q.0.3.3.W T X.u s o X . X @ 7 d s.4.3.5.5.7.3.T 7.7.  G.K.V.P.P.        ",
"        Z.*.#.      7.q.e.a.q.7.W 2.Y I  .s s q 8 7 6 5 y f q.Y W 3.5.5.5.5.0.5.6.m.P.K.P.Y.        ",
"          #.#.(.W.W 5.q.e.d.q.5.H Y n n ] f b w 9 4 9 0 i B 0.I J Y 3._ w.s.q.5.6.m.!.~.P.          ",
"          &.*._.W.W 7.q.e.d.q.5.H R B g ] f n w e 0 0 e i Z X.P J Y 3.3.e.s.e.5.7.m.T.!.P.          ",
"            P.).Q.3.e.e.q.0.2.J d d a d / b n e -.-.=.r p V 6.V s g V J 3.0.e.q.q.7.6.o.$.          ",
"              ~.I.W q.e.q.e.5.W h B f d ' n b x.R.n.i.i.P g 2.h h H J Y 7.e.w.0.7.4.3._ '           ",
"              T.H.Y 4.q.e.s.7.2.V L g d / H g I.`.^.U.J.( g ` n V H T T q.s.w.7.5.3.3.T Y           ",
"              Q ! H 2.9.q.w.0.7.J I H g A f g M.N.N.N.M./ g E H 2.2.3.2.0.q.7.3.3.2.3.T J H         ",
"              V H L T 4.7.q.3.4.Y Y n f L V H q.q.f.a.q.T K A H 3.2.7.3.q.0.7.2.2.W W I I H D       ",
"            u L B f K 2.2.3.W _ T W H a L W _ g f f g f R W f h 7.3.7.7.7.7.3.T T Y J J H H %._.A.K.",
"          v * B B g L T 2.2.T 6.t.u.G c g I I V Z Z Z V K K f H 5.0.p.l.k.0.4.I Y H J H L B @._.A.K.",
"        T.O.= c f d d J J J H y.J.K.@.Z s B b Z P P P L B g f K 4.k.G.J.E.6.T Z V b f m B b O.(.P.  ",
"  *.A.P.T.O., d s > , b H H H A F S v B s s d b < > ; t f f B Y 4._  . .~ I H g b z d c g b v { {   ",
"    Z.K.Y.+.s a = * < d B V V Z > s d g d t > s - $ $ $ a f Z Y 3.2.T T b J n d c s s c c c b c d u ",
"    m C C B m c d - & - s d g B ; < f B B f f < s - $ & d d b V J H H H s b b u , - - = , , , s * - ",
"    Z B Z b f s , & & & - < , f > < f g B f f ; = * - - d d g g H n g g u d s - - * - s d f x d > < ",
"    n H V g f u < $ $ $ - - , d , > f g B B C < - - - & s d g b H B d b > , - - - & * s c f f c > ; ",
"  f n B B c z - - $ $ - - - < s > , s f B c x - - - - - < d c b b c z z , > > - - & * d f f f c s ; ",
"  g g g g s s + + + #   u u * > , > > > - - - - - - - - - - ; , > > , > , t f *     t b b g V g d d ",
"  f d s s : * & & &       z > , f d b g f f d - - < s < - < f c b f d d ; - u         n B B L V d z ",
"  f d > ; & & + &         s u > f f f g Z B B - & d B z - > B B b g f f > -             H L H Z d s ",
"c s < - - + & = #           = u B f b f c f f f z s - : f B d f f f g g s =             b g L B a > ",
"b > = - - $ $ u *           = z B B c c s d d V C = + * Z V f s f g g B u                 b Z B > ; ",
"Z R B f z & & d               b s f < - s B B f > * $ % b g B d * > b f d                   s > + $ ",
"H I B f d * *                   , s < & ; u s s , = - = s s c , * ; s s                       ; $ % ",
"J J B g f ; *                   $ - $ $ $ $ + - , , s s ; & - - - - - *                       - - > ",
"Y J V g c - ;                   $ - & & - ; t s d > > , f s < ; - - - *                       - - > ",
"W J V g c &                     + & & - a g n Z C < - , P I B s - - - *                       O - a ",
"W H n n b                     c % < - - a f f f s - - - f B f t - - < ; s                     - ; d ",
"W H B B B                     d , a - - , c c f s - - - f c b > - - < ; d                     - > d ",
"2.V f f c                     f f f s , - * * > > f c d ; ; * * s d c f f                     > f b ",
"W g d ,                       f d d f x f c b n m m g b L h g g s z f d g                     d d g ",
"W g s =                       d f f c c V H V P H B g B ) 2.R V d b c c f                     g d h ",
"W f d =                       f d f s - g V V L b s u s H J g f > > > u B                     c g V ",
"T g s =                       f d d a , B Z L H B d , s I R b c > > , > g                   s d g B ",
"W c , -                     s B g g f d d n g b f u = a B B f d , s d s g s               J d g B H ",
"Y B < *                     d B n g g f s b c f f d , d g f f s s d f f b d d           J J n H H J ",
"J g < -                   u f Z V H g g d > > b b g g g f b > , f f g g V B s           I J 2.2.J J ",
"H H g d                   s g H J H V h d d z d f f f f s s a s f g V V V g d           m V Y Y J J ",
"V J h d d                 d B H J J H H f f b u f c b c s u , s g n H h V g f > =       d f I J J   ",
"H Y H B g                 > B H Y J J H g f f u z f d f a s , d g n H H Z B f a >       d s H H J   ",
"h W W W T                 - n H 2.T Y J B f f = > s > , a > > d B g K K H V b , >       > > f H V   ",
"H T J H H                 - C H 2.T Y Y V f c * = > ; = > t s d B V I Y J Z g > u       t t c L     ",
"J I g f d                 * C H 3.2.T T P g B * + + + + > u c f V J W W H A g > >         * d       ",
"m c u ;                   * b H 5.3.W 2.J f B - $ #       = c B H Y W T H B f , >                   ",
"                          $ g n 5.3.2.W I B V % #         > f g J Y W T H g f > >                   ",
"                          $ f H 3.W 3.3.Y d d = t         = f n J Y W W n g b > >                   ",
"                          $ B V 2.T 3.4.H f f ; s         * s g J I Y Y h f s u >                   ",
"                          $ B V T T 2.2.V f f < f         = > d ^ K K R B d s >                     ",
"                          = R V V H H J n a , s g         * - u ^ K V h g c >                       ",
"                          , R V H h H Y m t > s g         * * s ^ H Z Z B c >                       ",
"                          > I V n b Z H f d d f g         ; - = Z B n B s s >                       ",
"                          * R J g B V Z d f f f g         ; = > B g g g s a                         ",
"                            n H V B c x a s s g g         > > - d d b c , ;                         ",
"                            d n c c s - ; , > B B           ; ; - ; s s > *                         ",
"                              n d f < - - > s B g           = - - ; > < >                           ",
"                              b s f = * - , > x g           = ; > < d z >                           ",
"                              f > s * + # - - s d             - x u < < =                           ",
"                                + $ > f f f c - -             ; c z./.~.=                           ",
"                                X + s c B B B * ,             - s z./.~.-                           ",
"                                  + d L B Z Z * -             = - ..Y.P.*                           ",
"                                  $ x B V C Z - -             > s | P.K.-                           ",
"                                  ; g B L.B P - - s           ; O S V.B.$                           ",
"                                  u > z L.b Z > = f b         , $ : M M *                           ",
"                                  z > u F.z c ; ; f d         ; $ $ $ + =                           ",
"                                  t u ; < * - s f B V         - $ $ $ $ *                           ",
"                                    u > - - - , d V H         - + & $ + *                           ",
"                                      - - - - s g V V         - = ; - >                             ",
"                                      & - - - s b B           - s s s s =                           ",
"                                      * - - - d b             ; c c b f =                           ",
"                                        > d s d g             s d c f f s                           ",
"                                        s f b g f             z f       d                           ",
"                                        b Z V V c             x b                                   ",
"                                        c V V H c             c V                                   ",
"                                      f V J J Y V n           u u                                   ",
"                                    g f H J I T H g s                                               ",
"                                  H B g J T W ! V g d                                               ",
"                                H J J J ( D ~ B V h B c                                             ",
"                                H J J J | [ } Z V m g g                                             ",
"                                Y Y T Y v [ } Z Y J Y I                                             ",
"                                2.T W T F | ! ! Y W W Y                                             ",
"                                  0.5.c. ...o.o.y.5.0.                                              "
};
