/* XPM */
static char *enemy1[] = {
/* columns rows colors chars-per-pixel */
"50 100 256 2 ",
"   c None",
".  c #070707",
"X  c #0C0A07",
"o  c #0B0A0A",
"O  c #150E07",
"+  c #130F0A",
"@  c #0D1705",
"#  c #151D06",
"$  c #15120D",
"%  c #1D150B",
"&  c #191A0B",
"*  c gray8",
"=  c #1A1612",
"-  c #1D1915",
";  c gray11",
":  c #200E07",
">  c #390C07",
",  c #23160B",
"<  c #251C0E",
"1  c #2C1D0D",
"2  c #36170B",
"3  c #231C14",
"4  c #2A1E12",
"5  c #221F1B",
"6  c #361D11",
"7  c #17220C",
"8  c #1C240B",
"9  c #1E2414",
"0  c #2B220F",
"q  c #232B0F",
"w  c #2D2213",
"e  c #262917",
"r  c #25231D",
"t  c #2C241D",
"y  c #342313",
"u  c #3A2415",
"i  c #342A14",
"p  c #392B16",
"a  c #32251A",
"s  c #352A1E",
"d  c #3E2B1A",
"f  c #392D18",
"g  c #2C341A",
"h  c #252525",
"j  c #2B2622",
"k  c #2C2A25",
"l  c #2C2C2C",
"z  c #332C25",
"x  c #3B2D22",
"c  c #352F29",
"v  c #393529",
"b  c #343434",
"n  c #3B3632",
"m  c #3D3934",
"M  c gray23",
"N  c #4D0101",
"B  c #480C09",
"V  c #540707",
"C  c #5C0505",
"Z  c #5B0A09",
"A  c #47120C",
"S  c #55130F",
"D  c #471C12",
"F  c #531D15",
"G  c #5B1913",
"H  c #600707",
"J  c #650B0B",
"K  c #690D0D",
"L  c #6E1111",
"P  c #661A16",
"I  c #741414",
"U  c #761818",
"Y  c #7C1B1B",
"T  c #452316",
"R  c #422E1C",
"E  c #55251C",
"W  c #43331B",
"Q  c #4C361D",
"!  c #53381E",
"~  c #6B231D",
"^  c #73221E",
"/  c #4B2F20",
"(  c #592C22",
")  c #453323",
"_  c #4C3424",
"`  c #4C3924",
"'  c #43352A",
"]  c #46382C",
"[  c #4D3A2A",
"{  c #5C3126",
"}  c #533C22",
"|  c #5C3B25",
" . c #523D2A",
".. c #453C35",
"X. c #6E2922",
"o. c #752B25",
"O. c #792924",
"+. c #613325",
"@. c #66362B",
"#. c #79322A",
"$. c #394128",
"%. c #794517",
"&. c #59422A",
"*. c #5B442B",
"=. c #48413B",
"-. c #5E4A34",
";. c #564638",
":. c #654528",
">. c #6C4B2C",
",. c #75462D",
"<. c #734C2A",
"1. c #75502C",
"2. c #7B522E",
"3. c #654C37",
"4. c #744734",
"5. c #6A5239",
"6. c #755232",
"7. c #7B5639",
"8. c #444444",
"9. c #4B4743",
"0. c #4C4C4C",
"q. c #564C43",
"w. c #58524B",
"e. c #535353",
"r. c gray36",
"t. c #6C5744",
"y. c #7B5C44",
"u. c #7B614C",
"i. c gray39",
"p. c #6C6C6C",
"a. c #727272",
"s. c #821E1E",
"d. c #862222",
"f. c #8B2525",
"g. c #812F2B",
"h. c #8E2A2A",
"j. c #942E2E",
"k. c #82342D",
"l. c #88372C",
"z. c #883832",
"x. c #973131",
"c. c #9A3333",
"v. c #973C37",
"b. c #A43C3C",
"n. c #BE3636",
"m. c #CA3535",
"M. c #884409",
"N. c #925514",
"B. c #BA5815",
"V. c #AF6C1C",
"C. c #8C5627",
"Z. c #8B4737",
"A. c #98463A",
"S. c #845632",
"D. c #8B5B35",
"F. c #885A36",
"G. c #935C3A",
"H. c #BA5136",
"J. c #8F633E",
"K. c #96643B",
"L. c #9B653C",
"P. c #AA702B",
"I. c #A2683E",
"U. c #D35D0A",
"Y. c #CF6215",
"T. c #E15724",
"R. c #8D5948",
"E. c #AC4444",
"W. c #AF4848",
"Q. c #B24C4C",
"!. c #AB5649",
"~. c #B65252",
"^. c #B95757",
"/. c #B15A52",
"(. c #856644",
"). c #9B6C45",
"_. c #916E52",
"`. c #997457",
"'. c #A66A43",
"]. c #AB6D43",
"[. c #AE7145",
"{. c #AC734C",
"}. c #B37347",
"|. c #B9784B",
" X c #AC7254",
".X c #B57B58",
"XX c #D44E42",
"oX c #C35F5F",
"OX c #C47E4E",
"+X c #C97F4F",
"@X c #C67958",
"#X c #C86565",
"$X c #CC6A6A",
"%X c #D17669",
"&X c #D37575",
"*X c #E77166",
"=X c #AC825D",
"-X c #CD8454",
";X c #C78458",
":X c #D28758",
">X c #D38A5A",
",X c #DA8E5E",
"<X c #CB8862",
"1X c #D48A60",
"2X c #DD9262",
"3X c #D79468",
"4X c #D99673",
"5X c #E69A6A",
"6X c #E99A72",
"7X c #F79277",
"8X c #D7A57E",
"9X c #EEA272",
"0X c #ECA67B",
"qX c #F6AA7A",
"wX c #F6AA7B",
"eX c #DF8585",
"rX c #E48C8C",
"tX c #F09C93",
"yX c #DBB699",
"uX c #E6A685",
"iX c #F5A782",
"pX c #FCB183",
"aX c #FBB58B",
"sX c #F5A896",
"dX c #FDBC94",
"fX c #FFBF9A",
"gX c #F9ADA2",
"hX c #FFC19E",
"jX c #FFC5A4",
"kX c #FBC8AA",
"lX c #FFCEB3",
"zX c black",
"xX c black",
"cX c black",
"vX c black",
"bX c black",
"nX c black",
"mX c black",
"MX c black",
"NX c black",
"BX c black",
"VX c black",
"CX c black",
"ZX c black",
"AX c black",
"SX c black",
"DX c black",
"FX c black",
"GX c black",
"HX c black",
"JX c black",
"KX c black",
"LX c black",
"PX c black",
"IX c black",
"UX c black",
/* pixels */
"                                                                                                    ",
"                                    [.OX-X-X-X-X+XOXOX                                              ",
"                                  I.P.-X,X5X5X>X:X-X-XD.                                            ",
"                                  I.;X5XqXqXwX5X5X5X5XS.L.                                          ",
"                                L.L.=X5XwXwXwX9X5X2X6XD.L.                                          ",
"                                1.I.5XqXjXjXjXhXdXqXaX|.2.                                          ",
"                                2.K.>XhXwXhXhXqXaXdXdX].D.D.                                        ",
"                                C.D.=XhXwXwXhX9XwXhXjXK.D.L.                                        ",
"                              >X}.J.`.lX5X,XkX5X0XlXlX1.}.[.5X                                      ",
"                              ,X}.L.`.fX6X2XkX5X9XjXjX6.}.}.9X                                      ",
"                            pX6X>X-X^.!.'.u.yX`.G.XXm.@X>X>XiX                                      ",
"                            9X5X,X9X*Xn.7.6.8X).Z.m.m.7X2X,XwX                                      ",
"                            >X:X-X,XpXsXwXwXdXqX6XtXgXiXOXOX                                        ",
"                            7.S.D.L.1XiX5X6X3X5X6XiXiX XD.L.                                        ",
"                        v m 9.-.6.D.;X9X|..XG.{.1X9XwXG.<.<.                                        ",
"                        M 9.0.t.1.K.,X5Xt.e.F 3.`.9X6X].2.6.y                                       ",
"                      M 8.0.0.w.5.D.;X2X7.t.E t._.6X5X'.6.3.r h h h                                 ",
"                    8.8.b h M l 3 :.'.Y.Q./.v.W.).P.P.F.w 3 b b 0.0.M b x                           ",
"        l b 8.0.0.0.0.0.M b b l h Q D.B.H.T.H.Q.G.V.P.*.; h k b 8.8.8.8.b 8.l                       ",
"    l M M 8.e.r.r.r.r.0.0.8.h h h y ! M.Y.U.T.P.V.M.%.a h h h l b 8.8.8.8.8.8.;                     ",
"    l M b M e.r.e.r.r.e.8.8.h h r y ! %.V.U.V.N.C.M.%.s h h h l M 8.0.8.8.8.8.; ;                   ",
"  l M 0.0.8.b 0.e.e.0.8.l h 8...=.Q T W 0 1 , % , W d u l b M M k l b 8.M M b l b 5                 ",
"h b 8.0.e.0.8.8.8.8.0.b b 8.-.-.$.@.I G S F 1 O 3 E G P n b M M b b b M M M l b l h                 ",
"h M 8.e.r.e.0.M M 0.0.k 8.=.>.>...@.Y J J J > O > K K o.[  .M ..b M b h M M l l l h                 ",
"; M M 8.e.0.8.M M b k M 8.8.q.#.c.z.@.j.f.f.f.j.j.h.j.f.d.X.' M M l h ; - ; k b k h                 ",
"; M 8.0.e.0.0.M M b l M 8.0.w.4.c.k.@.c.s.f.s.c.c.j.j.f.s.X.b M 8.l j & < = t x z w             b b ",
"$ k b b b b M l b j ; l l b ..@.f.h.z.c.f.f.s.c.c.c.b.O.( _ b b b h j w ] ` 3.5.&.d _           M M ",
"s ) } ;.>.>.-.&.` w , ; l b n { f.h.j.j.s.s.s.h.j.j.j.O.c b l l l ; t Q 2.2.u.y.5.[ =.R  . .3.q.b b ",
"7.).=X3X2X2X>X).).*.i o h b c ( h.f.d.s.Y s.L s.s.s.s.~ t k h h h - x 6.D.(.*.j n 9.9.3.y.F.(.5.$ o ",
"<.K.}.,X>X-X-XL.I.:.p X h b c / g.h.f.d.s.s.L Y s.s.s.X.j l h l l - ) 5.(.(.&.h b ;.=.3.F.F.D.>.+   ",
"I.eXtXhXjXdXqX,X:XD.*.O o o h k x u F U 2 1 A 4 2 u u j r h o o X X - l _ ' [ ;.,.b.b.~.W.Q.:.}     ",
"].eXtXjXjXdXpX>X:XK.5.O o X ; 9 h 6 A L N 2 6 3 3 a y b l l l l l ; h m  .=.:.7.A.E.W.W.E.E.!       ",
"}.eXtXjXdXaXqX}.].D.y.$ o o . . . , A Z V B 2 h ; ; ; 8.e.e.a.a.a.8.8.;.t.6.D.^.^.^.~.b.b.b.u       ",
"[.,X6XfXdXwX>XF.2.} i o o o h h ; ; 3 4 x v j M 8.e.e.p.a.a.r.r.0.l z ` S.F.A.E.b.j.x.f.I I         ",
"}.3XuXgXhXuX<X7.6.Q f o o o h h ; ; 5 h l b l M 8.0.0.p.a.a.i.r.e.l v ` S.D.A.E.b.j.c.f.I U         ",
"F.6.t._.`.(.-.a a y i o * ; r ; ; = t ..9.8.e.r.r.r.r.e.0.0.M b b ; h a 3.<.#.Y Y s.Y I J K         ",
"5...;.u.u.t.;.d 6 1 1 O * ; ; ; % w R  .e.0.r.i.i.i.i.0.8.8.l l l * h t *.*.^ L Y Y Y I Z           ",
"k n 5.=XfXdXsX=X=XJ.6.W 4 - = w / *.(.5.i.i.r.8.0.0.e.l l l l l k ; ; 9 & y ~ H J K J H K           ",
"r 3.).5XiXaXdX,X,X}.L.W 0 - d } Z.R.Z.:.q.0.0.M b M b l l l h h ; e         i 2 A C C Z             ",
"r F. XwXgXsXjX9XwX;X|.! 4 - ` ,.#X^.v.>.8.8.M h l l l l h h * ; ; 9           O 2 N N               ",
"w G.|.9XsXsXsX6X4X%XOX2.! W ! ,.~.W.z.;...M b l l h h h h h ; 9 9 9                                 ",
"s '.OX5XjXsXeX#X#X1X2XI.D.C.1.Z.b.E.k.x x z 4 h h * * ; h h h e q l l                               ",
"3 K.].@X4X4XrX&X&X%X%X!.!.!.!.A.c.c.l.o.o.X.P ] k ; h i e e 9 e g v v                               ",
"$ K.!.Q.+X<XrXrXrX&X$XE.^.oX~.E.c.x.j.h.j.x.f. .m ; e f q q q g g $.$.                              ",
"% 1.D.G.I.}.<X&X&X#X#X#X~.Q.b.x.s.Y Y U U I K x n ] ) W q q 9 q g $.$.                              ",
"  +.2.D.S.G.+X#X#X#X#X#X~.W.j.f.L L L I C C V 6 z -.*.W q q q g $.$.$.                              ",
"    y W } :.,.S.S.!.~.c.c.b.s.I H J H J H C V $ 9 R W 0 r h h h h l                                 ",
"    0 f Q ! +.! :.k.j.f.d.s.I L C C C C C V S , r x x t r r h h h l l                               ",
"    1 6 d R p r y S K L L K L K N N N N N N D t h h h b 0 w h h h l l                               ",
"    1 0 W W Q t y E G S S G S A B > A A > > 4 h h l l n s s l l h b b h                             ",
"    , 0 W W [ W W y % O 3 s % < i i v W y 0 q h l M M b M b M b h M b h b                           ",
"      0 i p W w 1 % O w h k # # 8 8 g g 8 8 # l M M M M b M M b k l b b 8.M                         ",
"      1 0 i W , , o o l h h X @ 7 8 q q 7 & & M M M M M M M b b h h l M 0.8.                        ",
"        < y y % = * ; l b b e 7 # # 9 8 # @ 9 b b M M M M M M b l h l M m v                         ",
"              O $ h h M 8.0.$.l @ @ @ @ @ @ h h l M b ..v ' b n b h l M i y                         ",
"                * h b M M b h h b b ; * * * ; l h h h [ X.( _ _  .h l M i u                         ",
"                * l M b b b T T / ' 5 * * o ; l c T D X.s.Y { { ) h l M j s                         ",
"                + h M h h h O.Y J F 4 $ * * ; M _ Y Y j.f.f.h.O.u h k M M b                         ",
"                * h b h j j s.Y L S 4 $ * o 5 M _ O.s.f.f.f.f.~ 6 h l M b M                         ",
"                o h k h b n J J V B $ . o X 5 d u 4 u J J K K I U r l M b                           ",
"                  , ; l l z H Z V B 3 . ; ; z ) ( c x Y s.s.I I I x M =.                            ",
"                    * l t y V Z V A 3 . l h '  .P ' ' f.f.h.I I L ..]                               ",
"                    o d 6 B u D V A 3 o b M b ) { h.h.b.j.c.f.d.I )                                 ",
"                    o u A N s 6 V 6 ; o b M b ) { h.h.b.x.c.f.f.I )                                 ",
"                    o 6 V V a j 2 j ; o b l b ) O.b.b.j.h.h.@.O.U y                                 ",
"                      2 B V a h k h ; . ; ; ' _ #.v.v.#.o.| q.;.] w                                 ",
"                        > B t h h h * o o + R ;.w.;.....q.;.e.9...;                                 ",
"                        5 4 ; h ; h , o * * ' c b M M M ..M M b 8.;                                 ",
"                        ; h ; ; ; 5 4 . h ; b h h M b M M M h b 8.;                                 ",
"                        o * * ; * - % o * * h h b M M M M M b b b ;                                 ",
"                        o o o o X o o o o o ; M M 0.0.0.0.8.v x j ;                                 ",
"                        o o o o o o o o o o * h l h l b l x U s.( ;                                 ",
"                          o o o o o o o o o * l h l l M l x ^ d.O.%                                 ",
"                          . + o o o o o o o * ; 5 l l h h k 6 F T                                   ",
"                          . o o o o o o o o o h ; h h h h h 5 4 y                                   ",
"                            O o o o o o o o . . o o . o * o o o . k                                 ",
"                                    o o * ; * ; l l h b b b l h ; ;                                 ",
"                                      o ; ; ; b b b M 8.M M b l h *                                 ",
"                                      o ; ; h ; * * ; ; ; ; * ; ; *                                 ",
"                                      o h ; h ; ; ; ; h h h ; ; ; *                                 ",
"                                      o ; ; ; h h h k l b b h h ; *                                 ",
"                                      o ; ; ; h h h h l l l ; h ; *                                 ",
"                                      * * * ; h h h h b l l h h ; *                                 ",
"                                      ; o . * l j a t x x z l l ; ;                                 ",
"                                      o o o * % 4 X.@.u X.+.h 5 $                                   ",
"                                      * o o * 2 S s.s.E / R r 6 :                                   ",
"                                      ; o . % K L d.s.P 5 j j D                                     ",
"                                      ; o . $ V L s.s.P R u y A                                     ",
"                                      o o . + Y f.j.x.b.b.b.j.O.                                    ",
"                                      o o . , J I I Y f.d.f.Y G                                     ",
"                                      o + o 1 V C H H I I I C A                                     ",
"                                        . . > >.Z.b.A.b.b.b.b.#.                                    ",
"                                              l.v.E.b.E.b.b.j.#.                                    ",
"                                              c.b.b.b.E.b.E.h.O.                                    ",
"                                              j.c.b.b.E.b.b.h.#.                                    ",
"                                              h.j.b.c.b.x.c.j.k.                                    ",
"                                              @.o.x.j.j.j.x.+.{                                     ",
"                                              W ) @.o.O.o.+.) ]                                     ",
"                                                j x d y y 6 z b                                     ",
"                                                                                                    "
};
