/* XPM */
static char *enemy3[] = {
/* columns rows colors chars-per-pixel */
"50 100 256 2 ",
"   c None",
".  c #010101",
"X  c #0E0403",
"o  c #0B0906",
"O  c #160000",
"+  c #160F07",
"@  c #1D0B06",
"#  c #150E08",
"$  c #1F130B",
"%  c #230402",
"&  c #2C0302",
"*  c #2D0B05",
"=  c #330503",
"-  c #3D0403",
";  c #370905",
":  c #3C0904",
">  c #2A1A0C",
",  c #3A1D11",
"<  c #450000",
"1  c #4D0202",
"2  c #450A06",
"3  c #540202",
"4  c #5C0303",
"5  c #5D0E04",
"6  c #530A09",
"7  c #5C0909",
"8  c #4C170B",
"9  c #591405",
"0  c #401D12",
"q  c #5B1A15",
"w  c #630404",
"e  c #680606",
"r  c #650B0B",
"t  c #6B0E0E",
"y  c #780D0D",
"u  c #681608",
"i  c #71170D",
"p  c #731D0C",
"a  c #6E1111",
"s  c #681915",
"d  c #741414",
"f  c #781717",
"g  c #751A13",
"h  c #791B16",
"j  c #7D1A1A",
"k  c #4E301A",
"l  c #4A341C",
"z  c #732507",
"x  c #7A3204",
"c  c #73350E",
"v  c #61221B",
"b  c #772919",
"n  c #633315",
"m  c #783517",
"M  c #5A3A25",
"N  c #7B2827",
"B  c #693128",
"V  c #7B3528",
"C  c #653A31",
"Z  c #723931",
"A  c #76431D",
"S  c #5F4323",
"D  c #5F4B37",
"F  c #55473B",
"G  c #5A4A3B",
"H  c #664424",
"J  c #6E4B29",
"K  c #79492C",
"L  c #7C512E",
"P  c #78453A",
"I  c #4D4741",
"U  c #484848",
"Y  c #504A44",
"T  c #5C554F",
"R  c #555555",
"E  c #595755",
"W  c #5B5B5A",
"Q  c #6D4B45",
"!  c #784F46",
"~  c #67584A",
"^  c #625B55",
"/  c #735A57",
"(  c #6A625B",
")  c #7B6759",
"_  c #646464",
"`  c #6C6C6C",
"'  c #736960",
"]  c gray45",
"[  c gray49",
"{  c #8D0E0E",
"}  c #821E1E",
"|  c #833A0B",
" . c #822B14",
".. c #822618",
"X. c #8C3C14",
"o. c #833E1F",
"O. c #862121",
"+. c #8B2424",
"@. c #862A26",
"#. c #8E2929",
"$. c #942D2D",
"%. c #94392B",
"&. c #8C3834",
"*. c #963131",
"=. c #9B3434",
"-. c #973A3A",
";. c #9F3939",
":. c #A33C3C",
">. c #934A19",
",. c #89462B",
"<. c #934F2E",
"1. c #9B562D",
"2. c #874738",
"3. c #90453F",
"4. c #865833",
"5. c #875833",
"6. c #945A39",
"7. c #A14638",
"8. c #A3493A",
"9. c #A7553E",
"0. c #936038",
"q. c #9E673E",
"w. c #AF6F2B",
"e. c #8A4941",
"r. c #9B4F48",
"t. c #845A4C",
"y. c #8D5D4E",
"u. c #995647",
"i. c #A64141",
"p. c #AB4444",
"a. c #AF4949",
"s. c #B34D4D",
"d. c #A65645",
"f. c #B1574C",
"g. c #A95552",
"h. c #B65252",
"j. c #BA5555",
"k. c #B25A54",
"l. c #B25C5A",
"z. c #BE5A5A",
"x. c #866558",
"c. c #956354",
"v. c #9C695A",
"b. c #B76844",
"n. c #BD7549",
"m. c #A5635B",
"M. c #846464",
"N. c #996661",
"B. c #857566",
"V. c #AC6464",
"C. c #BA6B6B",
"Z. c #A37062",
"A. c #A07A74",
"S. c #C15E5E",
"D. c #C56262",
"F. c #C96767",
"G. c #CC6B6B",
"H. c #D06F6F",
"J. c #CF7171",
"K. c #D47474",
"L. c #D77A7A",
"P. c #DA7C7C",
"I. c #AF897F",
"U. c #CA8253",
"Y. c #D08656",
"T. c #D69264",
"R. c #838383",
"E. c #8D8D8D",
"W. c #958F8B",
"Q. c gray57",
"!. c #9B9591",
"~. c gray62",
"^. c #A69586",
"/. c #B2A292",
"(. c #A2A2A2",
"). c #ADABA8",
"_. c #B3AAA3",
"`. c gray71",
"'. c #DE8383",
"]. c #E08585",
"[. c #E48C8C",
"{. c #EA8E8E",
"}. c #E79191",
"|. c #E99494",
" X c #EE9B9B",
".X c #F19E9E",
"XX c #F1AE86",
"oX c #C1B1A1",
"OX c #F3A4A4",
"+X c #F7AAAA",
"@X c #F9ADAD",
"#X c #CBCBCB",
"$X c gray83",
"%X c black",
"&X c black",
"*X c black",
"=X c black",
"-X c black",
";X c black",
":X c black",
">X c black",
",X c black",
"<X c black",
"1X c black",
"2X c black",
"3X c black",
"4X c black",
"5X c black",
"6X c black",
"7X c black",
"8X c black",
"9X c black",
"0X c black",
"qX c black",
"wX c black",
"eX c black",
"rX c black",
"tX c black",
"yX c black",
"uX c black",
"iX c black",
"pX c black",
"aX c black",
"sX c black",
"dX c black",
"fX c black",
"gX c black",
"hX c black",
"jX c black",
"kX c black",
"lX c black",
"zX c black",
"xX c black",
"cX c black",
"vX c black",
"bX c black",
"nX c black",
"mX c black",
"MX c black",
"NX c black",
"BX c black",
"VX c black",
"CX c black",
"ZX c black",
"AX c black",
"SX c black",
"DX c black",
"FX c black",
"GX c black",
"HX c black",
"JX c black",
"KX c black",
"LX c black",
"PX c black",
"IX c black",
"UX c black",
/* pixels */
"                                                                                                    ",
"                                                                                                    ",
"                                                                                                    ",
"                                                                                                    ",
"                                                                                                    ",
"                                                                                                    ",
"                                                                                                    ",
"                                                                                                    ",
"                                                                                                    ",
"                                                                                                    ",
"                                                                                                    ",
"                                                                                                    ",
"                                                                                                    ",
"                                                                                                    ",
"                                                                                                    ",
"                                                                                                    ",
"                                                                                                    ",
"                                                                                                    ",
"                                                                                                    ",
"                                                                                                    ",
"                                                                                                    ",
"                                                                                                    ",
"                                                                                                    ",
"                                          ;.:.j.s.$.                                                ",
"                                          i.j.K.H.:.                                                ",
"                                      G.G.D.G.[.].K.L.[.                                            ",
"                                P.'.G.F.D.:.h.F.j.p.z.K.].[.'.                                      ",
"                              ].P.K.F.D.s.=.s.D.s.p.j.G.P.'.P.L.K.F.F.H.G.G.G.F.F.D.                ",
"                      F.G.P.L.F.D.D.z.S.s.=.j.'.'.D.S.D.F.H.G.G.G.S.S.D.z.z.z.z.z.S.D.F.            ",
"                    F.F.F.G.F.D.S.z.z.S.p.=.h.K.P.S.j.D.F.G.K.G.F.S.S.z.S.j.h.j.S.D.D.H.H.G.F.F.    ",
"            K.G.F.D.S.S.j.j.S.S.z.z.z.S.i.*.S.G.K.j.S.D.L.P.G.G.G.G.G.z.z.j.s.z.S.D.F.D.S.z.F.F.    ",
"      F.F.S.F.S.F.F.S.S.D.s.z.S.D.F.H.K.p.} =.a.j.p.j.].[.[.[.P.L.K.K.K.D.S.S.h.h.D.F.D.H.G.F.S.j.  ",
"    S.S.S.S.D.D.F.G.D.S.S.s.S.F.H.L.P.L.j.=.=.:.z.S.K.}..X X|.].'.].].P.H.H.S.:.h.S.H.K.K.K.S.S.s.  ",
"  a.S.S.G.H.K.K.G.F.D.h.p.S.K.P.P.'.P.'.P.z.s.=.L.H.[..XOXOX|.}.}.|.}.[.L.K.S.=.s.h.G.P.P.K.K.G.S.a.",
"s.s.S.G.K.K.K.K.F.S.S.p.:.S.P.[..X.X}.[.P.j.:.p.s.h.].{.|.}.[.[.}..X X].H.F.s.:.:.s.S.S.G.H.G.H.h.:.",
":.p.S.K.K.K.H.F.S.S.s.:.;.S.H.{.OXOX X|.P.S.p.*.i.p.H. X[.[.[.[.{.].P.F.S.h.:.:.:.:.S.h.S.S.S.S.:.$.",
"y $.p.F.S.F.S.S.p.a.p.:.:.p.D.P.|.|.{.].P.z.j j P.K.K.{.P.P.K.G.S.S.s.h.:.:.$.=.:.:.:.:.:.p.i.:.} } ",
"d } =.z.S.S.S.p.p.:.:.=.;.;.s.F.P.P.P.K.G.z.$.+.j.s.F.[.J.G.z.h.a.:.:.:.=.+.+.=.$.:.:.$.=.:.$.O.e e ",
"r t f :.=.:.:.:.:.:.=.=.=.$.:.a.z.S.S.D.D.D.p.*.i.*.z.].F.S.s.p.:.=.$.+.f } +.$.=.:.$.#.O.} t t 3 < ",
"r t d =.=.=.=.=.=.:.=.:.$.$.=.:.s.s.S.S.S.D.p.=.:.#.s.L.F.S.s.p.:.#.+.} } } +.$.=.:.$.+.} } d 4 3 3 ",
"  w e O.O.O.O.#.$.$.=.*.$.} } +.*.i.s.h.S.D.s.$.O.$.F.L.F.S.h.:.$.+.} } } j } =.i.=.O.f d t 3 3 w   ",
"  3 r e a j f j } #.=.=.$.O.O.O.+.$.:.p.j.F.D.h.=.i.H.G.J.J.D.h.:.+.} } } ..*.:.=.+.a 7 3 3 3 3 d   ",
"  4 e 4 r a t d d } $.$.=.+.f j f } $.=.h.G.G.D.O.h.'.'.L.L.K.D.j.a.p.p.*.;.h.a.v.N.y.q < 3 r t #.$.",
"  d a t r r e r e f $.:.:.:.=.$.=.:.i.s.K.H.L.$.O.K.H.G.D.G.J.H.F.S.S.h.a.s.l.B.(.(.(.( C 7 a f :.$.",
"#.+.f d r w r 7 7 a i.a.p.z.j.z.S.D.F.G.K.P.P.*.+.a.s.s.h.h.J.K.K.F.D.S.S.j.v.Q.#X#X$X`.^.a j +.$.$.",
"$.+.} a e t 7 q ! M.A.l.j.j.S.D.K.L.L.L.'.P.[.i.O.i.j.D.h.z.H.L.K.P.K.H.F.j.c.R.E.R.~.#XoXh j #.$.=.",
":.#.@.a d a Q [ (.)._.^.j.a.G.[.|. X.X.X.X[.}.D.i.L.P.L.S.S.K.'.].|.|..X|.].m.x.) M t.^._.y.f +.:.#.",
":.*.#.f d N Q.~.`.$X#X/.=.p.J.[. XOX@X@X+X|.}.'.D.S.j.S.D.F.L.[.|..XOXOX}.[.'.C.P s 7 e.c.2.j $.$.#.",
"$.=.+.&.^.).E.] ~ D D &.$.=.z.'.}..XOX+X+X+X.X[.z.z.a.:.j.D.|.OX+X+X+XOX.X|.J.s.t w 3 d } } =.:.} } ",
"+.$.O.e.W.!.) B 4 4 t f } :.z.D.P.[. X X}.[.].L.h.h.p.p.z.D.[..XOX+X+XOX[.].J.a.4 3 4 t f } #.} } } ",
"+.$.j &.N.Z s w 4 4 e t O.:.:.;.h.G.K.H.K.K.J.F.s.s.p.s.h.S.'.[.[.}.|.'.J.H.z.s.6 3 3 e d } } } d t ",
"*.+.O.j t 4 3 3 4 3 4 r t =.} } #.:.z.S.D.D.D.h.h.h.p.:.z.D.F.H.L.H.G.z.s.p.$.=.3 < 3 w t t d } w   ",
"#.O.f d w 4 3 1 3 3 4 e d } O.} d +.:.p.p.s.a.s.s.s.:.=.s.p.s.s.a.=.$.@.a a O.$.1 < < 4 w 3 4 4 4   ",
"O.j a t w 3 < < < 3 3 w t d } t r d ..#.$.=.:.p.i.#.f O.$.$.-.O.j g z o...d +.O.6 < < 3 3 3 3 w e d ",
"O.f a y w < < < < 1 3 t f e f t t a } } O.#.#.+.+.j r a +.O.a t b b.n.n. .d +.O.1 < 4 w 4 3 4 w } f ",
"#.O.} f t 4 1 3 1 6     3 t d } h ..>.9.,.r 4 4 6 t 7 r t t s m ,.1.>...O.O.O.} 3 < r d f } $.:.:.} ",
":.$.=.=.$.j t t 4         t t d i | w.T.XX<.m 7 1 3 3 3 4 d O.j O.#.=.:.=.+.} 4 7 a t j +.#.p.j.j.#.",
":.i.h.h.p.:.} +.a t       w f t a p X.8.f.%.@.O.@.r w 3 3 4 j j O.*.=.=.+.j t 4 d d O.j O.i.S.H.D.-.",
"s.S.H.F.F.S.i.:.*.+.O.      f f j d t t g #.$.#.a r 3 w 3 4 4 w w w t d a t     d d =.=.:.S.P.P.D.a.",
"s.S.H.K.F.S.s.i.=.O.+.      d d t t r t f } j t w 4 4 t d a t w w w r t t a       O.=.=.s.K.L.L.D.j.",
"a.F.H.P.K.F.h.s.:.$.#.      w d e r w w w w 3 3 4 w f +.@.N a t r r d a w r     j } =.s.D.K.'.L.z.s.",
":.D.H.P.P.K.D.F.s.=.$.      w 4 4 t d j d w w 4 w a } %.j d 3 6 2 < 3 7 d d a t d O.s.G.K.P.K.G.a.$.",
":.:.s.D.K.P.P.P.S.:.$.j a d 3 1 a j } } e 3 3 4 3 3 u A z i b 5.4.k 8 1 O.$.t e t :.F.P.'.P.D.a.j j ",
"$.=.:.S.K.K.[.].F.h.$.j d r < 3 t e O.O.t 6 j +.f t } =.9 < d K L l 0 < $.:.e e d =.G.K.P.K.D.;.a j ",
"$.+.:.:.j.H.].'.K.s.+.f a < < < 3 e O.+.t 1 g j j 7 r =.5 = 7 O.K > * < $.;.t r f =.F.P.].G.a.=.d d ",
"  $.$.:.s.H.[.].P.z.#.f w 1 < < 1 r O.O.r < 8 8 6 : = s ; X & & $ . O 1 O.=.d r +.=.G.P.P.H.a.$.t   ",
"  $.$.$.s.K.[.'.'.P.+.t e < < < < 7 +.+.s = $ # # . o # . . . . . . O 3 O.$.f =.=.h.P.P.L.H.i.} w   ",
"    } $.p.F.K.'.L.L.=.a w 7 < < < a O.O.a = o . . . . . . . . . . . O 1 #.+.*.p.K.].].K.F.z.i.$.    ",
"    } =.p.S.D.F.'.L.H.i.-.$.< < < 1 j j a - % . . . . # o % & @ o . O 1 O.+.s.H.].[.G.z.h.h.s.*.    ",
"      :.p.S.D.S.L.'.G.S.a.=.< < < 7 d j t < & . . . @ ; & - < - @ . X 2 } #.S.P.[.P.h.a.h.D.s.*.    ",
"      =.h.S.s.S.z.G.G.L.'.:.g < < 7 a a d < = . # = 3 7 3 3 7 1 < + o > +.$.h.F.G.z.;.z.G.G.a.      ",
"      =.h.S.D.S.F.L.P.G.P.H.#.1 < 1 t d j < & X : < 7 r r t 7 1 < * % , :.=.h.D.z.:.$.z.F.S.=.      ",
"      =.h.S.H.S.K.].H.S.S.P.=.1 < 3 t d O.3 = * < < w d t d 7 3 4 < 2 l :.=.s.D.:.:.:.j.S.s.p.      ",
"      =.p.j.S.F.L.F.F.S.h.h.+.< 1 1 d j *.t 6 3 3 a 6 j d f 1 t {  .n l d.:.$.i.=.p.H.S.h.i.h.      ",
"        :.s.S.F.F.s.h.s.i.p.a 1 1 6 d j ;.a r t s +.3 a O.d 1 #.{ X.K H d.i.j =.:.s.S.s.i.:.h.      ",
"        $.i.S.F.a.=.p.:.a.p.1 < 1 7 t } i.p f y p :.7 3 t 7 9 8.#.7.<.,.6.i.} +.=.p.h.:.:.p.        ",
"          +.O.O.} +.} O.t f e 1 1 r t O.=.i.h x >.q.6.U.n.Y.U.n.5.0.2.m.@.t d } =.=.:.i.$.+.        ",
"          $.} O.} } +.f t d t 4 3 t t +.=.V.r.r L 0.J q.5.6.c.6.m  .8.z.h t } $.$.=.:.$.=.h.        ",
"          #.$.O.} +.f t d d t 4 t f t @.p.a.F.b x c c S S c H J s =.z.h.i d $.:.a.s.$.h.S.S.        ",
"              +.} } t f f f d t t t     z.:.z.j.g i i z n m c c b h.S.a.t d :.:.h.a.:.a.S.P.        ",
"                f a f j f } f f t         s.:.F.z.$.$.i.g.z.k.z.D.z.C.*.r j i.h.S.j.:.D.P.H.        ",
"                j a f j } +.+.t           :.:.$.a.F.G.j.D.z.G.J.h.D.F.O.j $.i.j.H.D.s.j.F.S.        ",
"                j f y j +.+.} d               a.p.D.L.G.].T.D.D.G.G.:.a *.=.p.S.L.H.a.p.s.:.        ",
"                  a } } } +.} d                   D.J.P.[.[.L.G.D.;.j +.=.:.j.G.L.F.a.:.a.:.        ",
"                  j +.} { #.O.f                     a.a.H.S.&.N #.d d #.=.:.j.H.K.H.a.:.:.s.        ",
"                    O.} +.$.O.j                                   f } +.$.:.z.H.P.K.:.:.:.          ",
"                    } O.$.=.+.}                                     #.#.=.:.z.K.P.L.p.:.p.          ",
"                      +.$.:.$.+.                                    #.+.=.:.S.L.[.P.a.:.            ",
"                    #.$.$.p.:.+.                                    $.#.=.:.D.P.[.P.a.              ",
"            +.$.$.$.=.$.=.h.:.=.$.+.                                  O.=.:.D.P.}.].h.              ",
"          +.O.$.$.=.$.=.:.p.=.=.=.=.$.O.j                             $.=.:.H.].].P.D.              ",
"        } } } } +.:.$.:.a.#...:.:.=.O.} d                             $.:.p.H.P.'.P.J.              ",
"      P f f #.+.+.#.$.e.c.x.&.=.$.O.$.+.t v ~                         =.:.s.H.[.[.[.G.              ",
"                +.+.O.! [ [ B.+.O.$.                                  :.:.s.P.[.[.L.D.              ",
"                  j B ^ [ ] ` Q @.                                :.=.$.s.D.G.K.j.s.F.F.G.          ",
"                  a G E _ ] _ I                             ' N.l.:.=.:.S.S.j.c.Z.Z.D.D.z.D.x.)     ",
"                    F R W ` W Y                         ` ` ( g.h.:.:.i.D.S.c.x.I.[ u.S.S.k.y./ ` ] ",
"                      Y W R U                           ` _ W r.k.=.=.s.i.r./ ` ] ` ^ r.p.h./ ^ _ ` ",
"                                                      ` W W F 3.:.$.=.=.=.&.T W ` ` R V $.;.P F R W ",
"                                                                  *.$.    Z T W _ _ U M             "
};
