/* XPM */
static char *iconeraser[] = {
/* columns rows colors chars-per-pixel */
"50 50 256 2 ",
"   c white",
".  c gray98",
"X  c gray61",
"o  c #1E1E1E",
"O  c gray4",
"+  c #848484",
"@  c #E1E1E1",
"#  c #FEFEFE",
"$  c gray99",
"%  c #C6C6C6",
"&  c gray20",
"*  c gray5",
"=  c gray6",
"-  c #252525",
";  c #868686",
":  c #EFEFEF",
">  c #F9F9F9",
",  c #B9B9B9",
"<  c #272727",
"1  c #7B7B7B",
"2  c gray60",
"3  c #151515",
"4  c gray8",
"5  c #FBFBFB",
"6  c #9A9A9A",
"7  c black",
"8  c gray45",
"9  c #F3F3F3",
"0  c gray58",
"q  c #1D1D1D",
"w  c #070707",
"e  c #898989",
"r  c #9D9D9D",
"t  c #1B1B1B",
"y  c #B2B2B2",
"u  c #2A2A2A",
"i  c #7E7E7E",
"p  c #E2E2E2",
"a  c #282828",
"s  c gray85",
"d  c #959595",
"f  c gray14",
"g  c #E9E9E9",
"h  c #F6F6F6",
"j  c #090909",
"k  c gray49",
"l  c gray3",
"z  c gray94",
"x  c gray97",
"c  c #9B9B9B",
"v  c #EEEEEE",
"b  c #101010",
"n  c #838383",
"m  c gray39",
"M  c gray86",
"N  c #C8C8C8",
"B  c #343434",
"V  c #0C0C0C",
"C  c gray54",
"Z  c #747474",
"A  c gray87",
"S  c #5D5D5D",
"D  c #010101",
"F  c #464646",
"G  c gray83",
"H  c #D8D8D8",
"J  c gray78",
"K  c gray36",
"L  c gray26",
"P  c #D2D2D2",
"I  c #FDFDFD",
"U  c #0B0B0B",
"Y  c gray9",
"T  c gray1",
"R  c #3A3A3A",
"E  c #E4E4E4",
"W  c #ECECEC",
"Q  c #414141",
"!  c gray93",
"~  c #989898",
"^  c #CBCBCB",
"/  c gray32",
"(  c #020202",
")  c #505050",
"_  c #D7D7D7",
"`  c #A2A2A2",
"'  c gray10",
"]  c #DADADA",
"[  c #BCBCBC",
"{  c gray23",
"}  c gray42",
"|  c #CACACA",
" . c gray21",
".. c #0E0E0E",
"X. c gray92",
"o. c #2C2C2C",
"O. c #8D8D8D",
"+. c gray35",
"@. c gray43",
"#. c #4C4C4C",
"$. c gray",
"%. c #F1F1F1",
"&. c #585858",
"*. c #ACACAC",
"=. c gray74",
"-. c #515151",
";. c #484848",
":. c gray82",
">. c gray72",
",. c gray63",
"<. c #6F6F6F",
"1. c gray95",
"2. c #111111",
"3. c #8E8E8E",
"4. c #5A5A5A",
"5. c gray91",
"6. c #808080",
"7. c gray89",
"8. c #B1B1B1",
"9. c #A7A7A7",
"0. c gray31",
"q. c #CECECE",
"w. c #A0A0A0",
"e. c #131313",
"r. c #040404",
"t. c #F8F8F8",
"y. c #4B4B4B",
"u. c gray75",
"i. c gray96",
"p. c #313131",
"a. c gray48",
"s. c #BBBBBB",
"d. c #F4F4F4",
"f. c gray90",
"g. c gray47",
"h. c gray18",
"j. c #C0C0C0",
"k. c gray88",
"l. c #727272",
"z. c #191919",
"x. c gray2",
"c. c #3F3F3F",
"v. c #555555",
"b. c #565656",
"n. c gray34",
"m. c #A5A5A5",
"M. c #E6E6E6",
"N. c #8B8B8B",
"B. c #373737",
"V. c gray73",
"C. c #979797",
"Z. c #6C6C6C",
"A. c #DDDDDD",
"S. c #D0D0D0",
"D. c #A4A4A4",
"F. c gray64",
"G. c LightGray",
"H. c gray52",
"J. c #888888",
"K. c gray25",
"L. c #717171",
"P. c #161616",
"I. c gray70",
"U. c #626262",
"Y. c gray11",
"T. c #AFAFAF",
"R. c black",
"E. c black",
"W. c black",
"Q. c black",
"!. c black",
"~. c black",
"^. c black",
"/. c black",
"(. c black",
"). c black",
"_. c black",
"`. c black",
"'. c black",
"]. c black",
"[. c black",
"{. c black",
"}. c black",
"|. c black",
" X c black",
".X c black",
"XX c black",
"oX c black",
"OX c black",
"+X c black",
"@X c black",
"#X c black",
"$X c black",
"%X c black",
"&X c black",
"*X c black",
"=X c black",
"-X c black",
";X c black",
":X c black",
">X c black",
",X c black",
"<X c black",
"1X c black",
"2X c black",
"3X c black",
"4X c black",
"5X c black",
"6X c black",
"7X c black",
"8X c black",
"9X c black",
"0X c black",
"qX c black",
"wX c black",
"eX c black",
"rX c black",
"tX c black",
"yX c black",
"uX c black",
"iX c black",
"pX c black",
"aX c black",
"sX c black",
"dX c black",
"fX c black",
"gX c black",
"hX c black",
"jX c black",
"kX c black",
"lX c black",
"zX c black",
"xX c black",
"cX c black",
"vX c black",
"bX c black",
"nX c black",
"mX c black",
"MX c black",
"NX c black",
"BX c black",
"VX c black",
"CX c black",
"ZX c black",
"AX c black",
"SX c black",
"DX c black",
"FX c black",
"GX c black",
"HX c black",
"JX c black",
"KX c black",
"LX c black",
"PX c black",
"IX c black",
"UX c black",
/* pixels */
"                                                                                                    ",
"                                                                                                    ",
"                                                                                                    ",
"                                                                                                    ",
"                                                                                                    ",
"                                                                                                    ",
"                                                      . X o O + @ #                                 ",
"                                                    $ % & * = - ; :                                 ",
"                                                  > , < = 1 2 3 4 ; 5                               ",
"                                                5 6 < 7 8 9   0 q w e 5   #                         ",
"                                              5 r t = 8 :     9 y u w ; : #                         ",
"                                            > 6 t q i 9         > y q 4 ; p                         ",
"                                          $ , a = i s             9 d 3 f ; $                       ",
"                                        g r t 3 6 h                   y u j ; @ #                   ",
"                                      $ r & = 8 :                     9 e u f ; : #                 ",
"                                    . , t = k 9                         9 y 3 4 ; 5                 ",
"                                  5 6 < 3 8 9                               0 q w e 5               ",
"                                5 r t = 6 :                                 9 y u l ; z #           ",
"                              > 6 t q k x     #                               > y o 3 c v           ",
"                            $ , < b k s                                         9 n w m M           ",
"                          g r t 3 6 x                                         $ N B V C g           ",
"                        $ r & * Z :                                         $ A S D F G $           ",
"                      > , t D f H                                           J K j L P I             ",
"                    5 6 < U Y T R E #                                     W & D Q !                 ",
"                  5 r t = ~ ^ / ( ) _ .                               $ J K U F P                   ",
"                I ` ' q k x # ] ) j ) [                             # J { j } P I                   ",
"                A & = k s     I |  ...) !                           X.K j o.P 5                     ",
"              I O.7 +.v           | u ( @.E                       W #.D L $.                        ",
"              %.&.D *.            I =.-...) _                 $ A K D F P 5                         ",
"              X.;.T N               I ]  .j ) E               J K j Q :.I                           ",
"              : -.( >.                $ ,. ...<.!           1.K 2.o.$.5                             ",
"              $ 3.D 4.5.#               I ] -.( ) _ .   $ J K V F P                                 ",
"                ^ ' t ,.W                 I =.u ..6.7.  A K 2.F 8.5                                 ",
"                5 9.' o 1 5                 I | { 0.q.W K j o.:.5                                   ",
"                    w.e.r.` t.                  ! W g y.D Q u.                                      ",
"                    i.0 p.o a.W                 $ J K D F P 5                                       ",
"                      i.s.' b a.>               J { j Q P I                                         ",
"            # d.@ A f.. i.g.' o ` .           W S O h.j.5                                           ",
"            k.l.* U z.*.x i.s.p.x.c.v.v.b.v.v.o.7 l B n.v.v.v.v.v.v.v.v.v.v.v.v.b.v.&.m.!           ",
"            M.N.B. .L V.t.  h C.< = V V V V V V V U V V V V V V V V V V V V V V V V * Z.A.          ",
"            I 9 @ k.E t.  # # t.S.*.D.D.D.D.D.D.D.F.D.D.D.D.D.D.D.D.D.D.D.D.D.D.D.D.9.G.x           ",
"                #       5 H.J.%.              #                           #                         ",
"                      p H.O K.k.                                                                    ",
"                    d.L.P.F I.>                                                                     ",
"                    1.U.Y.T.9                                                                       ",
"                                                                                                    ",
"                                                                                                    ",
"                                                                                                    ",
"                                                                                                    ",
"                                                                                                    "
};
