/* XPM */
static char *icondot[] = {
/* columns rows colors chars-per-pixel */
"50 50 128 2 ",
"   c black",
".  c #010101",
"X  c #020202",
"o  c gray1",
"O  c #040404",
"+  c gray2",
"@  c #060606",
"#  c #070707",
"$  c gray3",
"%  c #090909",
"&  c gray4",
"*  c #0B0B0B",
"=  c gray5",
"-  c #0E0E0E",
";  c gray6",
":  c #101010",
">  c #111111",
",  c gray7",
"<  c #131313",
"1  c #181818",
"2  c #191919",
"3  c gray10",
"4  c #1B1B1B",
"5  c gray11",
"6  c #1D1D1D",
"7  c gray12",
"8  c gray13",
"9  c #222222",
"0  c #252525",
"q  c gray16",
"w  c gray19",
"e  c gray20",
"r  c gray21",
"t  c gray22",
"y  c #3E3E3E",
"u  c #414141",
"i  c gray26",
"p  c #434343",
"a  c gray27",
"s  c #515151",
"d  c gray32",
"f  c gray33",
"g  c #555555",
"h  c #565656",
"j  c gray35",
"k  c #5A5A5A",
"l  c #5B5B5B",
"z  c gray37",
"x  c gray38",
"c  c #626262",
"v  c gray40",
"b  c #676767",
"n  c gray42",
"m  c #767676",
"M  c #7E7E7E",
"N  c #848484",
"B  c #8D8D8D",
"V  c #8E8E8E",
"C  c #939393",
"Z  c #989898",
"A  c #9B9B9B",
"S  c gray61",
"D  c #9D9D9D",
"F  c #9F9F9F",
"G  c #A0A0A0",
"H  c gray64",
"J  c #A4A4A4",
"K  c #A5A5A5",
"L  c gray65",
"P  c gray67",
"I  c #ACACAC",
"U  c gray68",
"Y  c #AFAFAF",
"T  c gray70",
"R  c #B4B4B4",
"E  c gray71",
"W  c #BBBBBB",
"Q  c #BCBCBC",
"!  c gray",
"~  c #C1C1C1",
"^  c LightGray",
"/  c gray84",
"(  c #D8D8D8",
")  c gray86",
"_  c #DFDFDF",
"`  c #E2E2E2",
"'  c gray89",
"]  c #E4E4E4",
"[  c #E6E6E6",
"{  c #E7E7E7",
"}  c gray91",
"|  c gray92",
" . c #ECECEC",
".. c gray93",
"X. c #EEEEEE",
"o. c #EFEFEF",
"O. c gray94",
"+. c #F1F1F1",
"@. c gray95",
"#. c #F3F3F3",
"$. c #F4F4F4",
"%. c gray96",
"&. c #F6F6F6",
"*. c gray97",
"=. c #F8F8F8",
"-. c #F9F9F9",
";. c gray98",
":. c #FBFBFB",
">. c gray99",
",. c #FDFDFD",
"<. c #FEFEFE",
"1. c white",
"2. c black",
"3. c black",
"4. c black",
"5. c black",
"6. c black",
"7. c black",
"8. c black",
"9. c black",
"0. c black",
"q. c black",
"w. c black",
"e. c black",
"r. c black",
"t. c black",
"y. c black",
"u. c black",
/* pixels */
"1.1.1.1.1.1.1.1.1.1.1.1.1.1.1.1.1.1.1.1.1.1.1.1.1.1.1.1.1.1.1.1.1.1.1.1.1.1.1.1.1.1.1.1.1.1.1.1.1.1.",
"1.1.1.1.1.1.1.1.1.1.1.1.1.1.1.1.1.1.1.1.1.1.1.1.1.1.1.1.1.1.1.1.1.1.1.1.1.1.1.1.1.1.1.1.1.1.1.1.1.1.",
"1.1.1.1.1.1.1.1.1.1.1.1.1.1.1.1.1.1.1.1.1.1.1.1.1.1.1.1.1.1.1.1.1.1.1.1.1.1.1.1.1.1.1.1.1.1.1.1.1.1.",
"1.1.1.1.1.1.1.1.1.1.1.1.1.1.1.1.1.1.1.1.1.1.1.1.1.1.1.1.1.1.1.1.1.1.1.1.1.1.1.1.1.1.1.1.1.1.1.1.1.1.",
"1.1.1.1.1.1.1.1.1.1.1.1.1.1.1.1.1.1.1.1.1.1.1.1.1.1.1.1.1.1.1.1.1.1.1.1.1.1.1.1.1.1.1.1.1.1.1.1.1.1.",
"1.1.1.1.1.1.1.1.1.1.1.1.1.1.1.1.1.1.1.1.1.1.1.1.1.1.1.1.1.1.1.1.1.1.1.1.1.1.1.1.1.1.1.1.1.1.1.1.1.1.",
"1.1.1.1.1.1.1.1.1.1.1.1.1.1.1.1.1.1.1.1.1.1.1.1.1.1.1.1.1.1.1.1.1.1.1.1.1.1.1.1.1.1.1.1.1.1.1.1.1.1.",
"1.1.1.1.1.1.1.1.1.1.1.1.1.1.1.1.1.1.1.1.1.1.1.1.1.1.1.1.1.1.1.1.1.1.1.1.1.1.1.1.1.1.1.1.1.1.1.1.1.1.",
"1.1.1.1.1.1.1.1.:.1.1.1.,.<.<.:.1.,.*.>.<.:.>.1.>.1.1.1.:.,.1.<.,.1.1.,.1.1.&.1.1.1.1.1.1.1.1.1.1.1.",
"1.1.1.1.1.1.1.1.>.>.:.>.1.1.1.1.+.1.1.1.1.1.1.1.1.>.*.;.1.1.1.<.1.1.;.-.1.-.+.1.1.1.1.1.1.1.1.1.1.1.",
"1.1.1.1.1.1.1.1.1.,.>.1.1.1.1.1.1.1.@.O.1.1.' R S L ~ ] =.:.,.1.1.,.1.1.+.1.1.X.1.1.1.1.1.1.1.1.1.1.",
"1.1.1.1.1.1.1.1.1.1.1.1.1.;.;.<.@.1.>.W z 1     +     o 6 f U ;.1.,.<.1.1.=.&.1.1.1.1.1.1.1.1.1.1.1.",
"1.1.1.1.1.1.1.1.:.1.1.>.-.:.1.1.1.K y #     @ ;     O @     : r Z 1.1.} 1.1.| 1.1.1.1.1.1.1.1.1.1.1.",
"1.1.1.1.1.1.1.1.,.1.1.;.1.1.>.[ c 0     + .     o     $ #     o ; M [ -.$.1.1.o.1.1.1.1.1.1.1.1.1.1.",
"1.1.1.1.1.1.1.1.1.1.<.>.1.1.Q n O     @ #     # +         .         s } 1.&.1.<.1.1.1.1.1.1.1.1.1.1.",
"1.1.1.1.1.1.1.1.,.1.-.-.1.{ b     . . .       .   o +     . + + o +   a ] 1.O.1.1.1.1.1.1.1.1.1.1.1.",
"1.1.1.1.1.1.1.1.1.=.1.=.<.v   O                                 o .   & d 1.>.1.1.1.1.1.1.1.1.1.1.1.",
"1.1.1.1.1.1.1.1.:.-.1.1.H 8                                             4 A ,.<.1.1.1.1.1.1.1.1.1.1.",
"1.1.1.1.1.1.1.1.:.1.<.%.i   +                                       #     e X.;.1.1.1.1.1.1.1.1.1.1.",
"1.1.1.1.1.1.1.1.1.1.;.E =   >                                   $   o     $ T =.1.1.1.1.1.1.1.1.1.1.",
"1.1.1.1.1.1.1.1.1.1.1.l   @ $                                   X       #   h 1.1.1.1.1.1.1.1.1.1.1.",
"1.1.1.1.1.1.1.1.;.1.1.7   $                                         .   #   , 1.1.1.1.1.1.1.1.1.1.1.",
"1.1.1.1.1.1.1.1.<.1._ *   X   o                                   @ @   *     ) 1.1.1.1.1.1.1.1.1.1.",
"1.1.1.1.1.1.1.1.1.;.Y +     #                                     o     >     J 1.1.1.1.1.1.1.1.1.1.",
"1.1.1.1.1.1.1.1.:.1.C *   *   O                                 .   @   X   & N 1.1.1.1.1.1.1.1.1.1.",
"1.1.1.1.1.1.1.1.1.1.G     O   %                                     +         B 1.1.1.1.1.1.1.1.1.1.",
"1.1.1.1.1.1.1.1.1.:.!   X o   #                                   O o     .   P 1.1.1.1.1.1.1.1.1.1.",
"1.1.1.1.1.1.1.1.1.>.' . + #                                       o     o     / 1.1.1.1.1.1.1.1.1.1.",
"1.1.1.1.1.1.1.1.,.1.;.4   + +                                         @ o   6 $.1.1.1.1.1.1.1.1.1.1.",
"1.1.1.1.1.1.1.1.1.1.1.g     #                                   o     @     k >.1.1.1.1.1.1.1.1.1.1.",
"1.1.1.1.1.1.1.1.1.:.1.Y ;   X o                                 X         * Y >.1.1.1.1.1.1.1.1.1.1.",
"1.1.1.1.1.1.1.1.1.$.1.;.w     o                                     O   + q #.1.1.1.1.1.1.1.1.1.1.1.",
"1.1.1.1.1.1.1.1.1.1.$.1.F @ *   #       o X   .   . + o         O   @   = Z 1.%.1.1.1.1.1.1.1.1.1.1.",
"1.1.1.1.1.1.1.1.;.<.1.<.;.m   -   o & O         X         o o .   2     c { ,.1.1.1.1.1.1.1.1.1.1.1.",
"1.1.1.1.1.1.1.1.1...1.*.1.X.p   @ .       % % .     + @         o     t #.1.-.1.1.1.1.1.1.1.1.1.1.1.",
"1.1.1.1.1.1.1.1.1.o.1.1.| 1.[ u       $ &       O .           .     y ( ,.1.$.1.1.1.1.1.1.1.1.1.1.1.",
"1.1.1.1.1.1.1.1.&.1.@.1.1.X.1.{ x 9     X @ $ >       $ < : # . 1 j ..1.=.} 1.$.1.1.1.1.1.1.1.1.1.1.",
"1.1.1.1.1.1.1.1.%.1.,.&.1.1.-.1.*.D y ;         @ O .       % q D ` 1.1. .1.,.<.1.1.1.1.1.1.1.1.1.1.",
"1.1.1.1.1.1.1.1.1.,.1.o.=.1.-.{ 1.,.{ I l 3 X O       $ 5 s P -.1.1.;.@.1.1.=.1.1.1.1.1.1.1.1.1.1.1.",
"1.1.1.1.1.1.1.1.;.1.,.1.1.&.*.1.:.1.1.;.<.-.^ K B V L ^ &.<.>.>.:.1.1.1.&.<.<.1.1.1.1.1.1.1.1.1.1.1.",
"1.1.1.1.1.1.1.1.1.1.1.1.1.1.1.1.1.1.1.1.1.1.1.1.1.1.1.1.1.1.1.1.1.1.1.1.1.1.1.1.1.1.1.1.1.1.1.1.1.1.",
"1.1.1.1.1.1.1.1.1.1.1.1.1.1.1.1.1.1.1.1.1.1.1.1.1.1.1.1.1.1.1.1.1.1.1.1.1.1.1.1.1.1.1.1.1.1.1.1.1.1.",
"1.1.1.1.1.1.1.1.1.1.1.1.1.1.1.1.1.1.1.1.1.1.1.1.1.1.1.1.1.1.1.1.1.1.1.1.1.1.1.1.1.1.1.1.1.1.1.1.1.1.",
"1.1.1.1.1.1.1.1.1.1.1.1.1.1.1.1.1.1.1.1.1.1.1.1.1.1.1.1.1.1.1.1.1.1.1.1.1.1.1.1.1.1.1.1.1.1.1.1.1.1.",
"1.1.1.1.1.1.1.1.1.1.1.1.1.1.1.1.1.1.1.1.1.1.1.1.1.1.1.1.1.1.1.1.1.1.1.1.1.1.1.1.1.1.1.1.1.1.1.1.1.1.",
"1.1.1.1.1.1.1.1.1.1.1.1.1.1.1.1.1.1.1.1.1.1.1.1.1.1.1.1.1.1.1.1.1.1.1.1.1.1.1.1.1.1.1.1.1.1.1.1.1.1.",
"1.1.1.1.1.1.1.1.1.1.1.1.1.1.1.1.1.1.1.1.1.1.1.1.1.1.1.1.1.1.1.1.1.1.1.1.1.1.1.1.1.1.1.1.1.1.1.1.1.1.",
"1.1.1.1.1.1.1.1.1.1.1.1.1.1.1.1.1.1.1.1.1.1.1.1.1.1.1.1.1.1.1.1.1.1.1.1.1.1.1.1.1.1.1.1.1.1.1.1.1.1.",
"1.1.1.1.1.1.1.1.1.1.1.1.1.1.1.1.1.1.1.1.1.1.1.1.1.1.1.1.1.1.1.1.1.1.1.1.1.1.1.1.1.1.1.1.1.1.1.1.1.1.",
"1.1.1.1.1.1.1.1.1.1.1.1.1.1.1.1.1.1.1.1.1.1.1.1.1.1.1.1.1.1.1.1.1.1.1.1.1.1.1.1.1.1.1.1.1.1.1.1.1.1."
};
