/* XPM */
static char *iconsquare[] = {
/* columns rows colors chars-per-pixel */
"50 50 128 2 ",
"   c black",
".  c #060606",
"X  c #070707",
"o  c gray3",
"O  c #090909",
"+  c #0B0B0B",
"@  c #0E0E0E",
"#  c gray6",
"$  c #111111",
"%  c #131313",
"&  c #181818",
"*  c #191919",
"=  c gray10",
"-  c #1D1D1D",
";  c #1E1E1E",
":  c gray12",
">  c gray13",
",  c #222222",
"<  c #272727",
"1  c gray16",
"2  c #2A2A2A",
"3  c gray18",
"4  c #323232",
"5  c #393939",
"6  c #464646",
"7  c #484848",
"8  c #4C4C4C",
"9  c gray30",
"0  c gray34",
"q  c gray36",
"w  c #5D5D5D",
"e  c gray39",
"r  c #646464",
"t  c #6A6A6A",
"y  c #6D6D6D",
"u  c #717171",
"i  c #747474",
"p  c gray48",
"a  c #8E8E8E",
"s  c #909090",
"d  c #929292",
"f  c #939393",
"g  c gray58",
"h  c #959595",
"j  c #979797",
"k  c #989898",
"l  c #9B9B9B",
"z  c gray61",
"x  c #ACACAC",
"c  c #AEAEAE",
"v  c gray70",
"b  c #B4B4B4",
"n  c gray71",
"m  c #B6B6B6",
"M  c #B7B7B7",
"N  c gray72",
"B  c #B9B9B9",
"V  c gray74",
"C  c #C1C1C1",
"Z  c #C8C8C8",
"A  c LightGray",
"S  c #D5D5D5",
"D  c gray85",
"F  c gray86",
"G  c #DDDDDD",
"H  c gray87",
"J  c #DFDFDF",
"K  c #E2E2E2",
"L  c #E4E4E4",
"P  c #E6E6E6",
"I  c gray91",
"U  c #E9E9E9",
"Y  c #EAEAEA",
"T  c gray92",
"R  c #ECECEC",
"E  c #EFEFEF",
"W  c gray94",
"Q  c #F1F1F1",
"!  c gray95",
"~  c #F3F3F3",
"^  c #F4F4F4",
"/  c gray96",
"(  c #F6F6F6",
")  c gray97",
"_  c #F8F8F8",
"`  c #F9F9F9",
"'  c gray98",
"]  c #FBFBFB",
"[  c gray99",
"{  c #FDFDFD",
"}  c #FEFEFE",
"|  c white",
" . c black",
".. c black",
"X. c black",
"o. c black",
"O. c black",
"+. c black",
"@. c black",
"#. c black",
"$. c black",
"%. c black",
"&. c black",
"*. c black",
"=. c black",
"-. c black",
";. c black",
":. c black",
">. c black",
",. c black",
"<. c black",
"1. c black",
"2. c black",
"3. c black",
"4. c black",
"5. c black",
"6. c black",
"7. c black",
"8. c black",
"9. c black",
"0. c black",
"q. c black",
"w. c black",
"e. c black",
"r. c black",
"t. c black",
"y. c black",
"u. c black",
/* pixels */
"| | | | | | | | | | | | | | | | | | | | | | | | | | | | | | | | | | | | | | | | | | | | | | | | | | ",
"| | | | | | | | | | | | | | | | | | | | | | | | | | | | | | | | | | | | | | | | | | | | | | | | | | ",
"| | | | | | | | | | | | | | | | | | | | | | | | | | | | | | | | | | | | | | | | | | | | | | | | | | ",
"| | | | | | | | | | | | | | | | | | | | | | | | | | | | | | | | | | | | | | | | | | | | | | | | | | ",
"| | | | | | | | | | | | | | | | | | | | | | | | | | | | | | | | | | | | | | | | | | | | | | | | | | ",
"| | | | | | | | | | | | | | | | | | | | | | | | | | | | | | | | | | | | | | | | | | | | | | | | | | ",
"| | | | | | | | | | | | | | | | | | | | | | | | | | | | | | | | | | | | | | | | | | | | | | | | | | ",
"| | | | | | | | | | | | | | | | | | | | | | | | | | | | | | | | | | | | | | | | | | | | | | | | | | ",
"| | | | | | | | | | ) ` | ( | | | | | | | | | | | | | | | | | | [ | ) | | / | | ! | P | | ` | } | | ",
"| | | | | | | | [ 3 # . # $ $ @ O O O O O O O O O O O O O O O O @ $ X $ % + @   r ) | | ) / | { | | ",
"| | | | | | | | ` ; Z | ^ T R ) ( ( ( ( ( ( ( ( ( ( ( ( ( ( ( ( Q / R ! ( / T V 5 ( | | ) | | ` | | ",
"| | | | | | | | | & U | ) ' | | | | | | | | | | | | | | | | | | | | | | | | ] B q | ( ( | | } { | | ",
"| | | | | | | | ) ; H } | | | E [ [ [ [ [ [ [ [ [ [ [ [ [ [ [ [ { | | | ) | { v 8 ] ] | | ' ! | | | ",
"| | | | | | | | | 4 G { | L [ | | | | | | | | | | | | | | | | | } | | | ~ | | b 6 | | ) | { ' | | | ",
"| | | | | | | | [ : A | | | _ ] [ [ [ [ [ [ [ [ [ [ [ [ [ [ [ [ | { | | ` | | b 0 | | E ' | | ' | | ",
"| | | | | | | | { > T | Q | } | | | | | | | | | | | | | | | | | | ) ` | ' | | x 7 / | | | ] | | | | ",
"| | | | | | | | } - K | | [ | { | | | | | | | | | | | | | | | | | { | ' | } [ m 9 | | [ | } | | | | ",
"| | | | | | | | } - K | | [ | { | | | | | | | | | | | | | | | | | { | ' | } [ m 9 | | [ | } | | | | ",
"| | | | | | | | } - K | | [ | { | | | | | | | | | | | | | | | | | { | ' | } [ m 9 | | [ | } | | | | ",
"| | | | | | | | } - K | | [ | { | | | | | | | | | | | | | | | | | { | ' | } [ m 9 | | [ | } | | | | ",
"| | | | | | | | } - K | | [ | { | | | | | | | | | | | | | | | | | { | ' | } [ m 9 | | [ | } | | | | ",
"| | | | | | | | } - K | | [ | { | | | | | | | | | | | | | | | | | { | ' | } [ m 9 | | [ | } | | | | ",
"| | | | | | | | } - K | | [ | { | | | | | | | | | | | | | | | | | { | ' | } [ m 9 | | [ | } | | | | ",
"| | | | | | | | } - K | | [ | { | | | | | | | | | | | | | | | | | { | ' | } [ m 9 | | [ | } | | | | ",
"| | | | | | | | } - K | | [ | { | | | | | | | | | | | | | | | | | { | ' | } [ m 9 | | [ | } | | | | ",
"| | | | | | | | } - K | | [ | { | | | | | | | | | | | | | | | | | { | ' | } [ m 9 | | [ | } | | | | ",
"| | | | | | | | } - K | | [ | { | | | | | | | | | | | | | | | | | { | ' | } [ m 9 | | [ | } | | | | ",
"| | | | | | | | } - K | | [ | { | | | | | | | | | | | | | | | | | { | ' | } [ m 9 | | [ | } | | | | ",
"| | | | | | | | } - K | | [ | { | | | | | | | | | | | | | | | | | { | ' | } [ m 9 | | [ | } | | | | ",
"| | | | | | | | } - K | | [ | { | | | | | | | | | | | | | | | | | { | ' | } [ m 9 | | [ | } | | | | ",
"| | | | | | | | } - K | | [ | { | | | | | | | | | | | | | | | | | { | ' | } [ m 9 | | [ | } | | | | ",
"| | | | | | | | } - K | | [ | { | | | | | | | | | | | | | | | | | { | ' | } [ m 9 | | [ | } | | | | ",
"| | | | | | | | | < I | | [ ] [ | | | | | | | | | | | | | | | | | | | ' | | } M 9 | | [ | } | | | | ",
"| | | | | | | | ` = S W ] { | | } } } } } } } } } } } } } } } } | ] | _ | } [ n 9 | | [ | } | | | | ",
"| | | | | | | | | 2 P | | | } ] | | | | | | | | | | | | | | | | | } | { | | | B 9 | | [ | } | | | | ",
"| | | | | | | | ! * F _ | ] ' ' { { { { { { { { { { { { { { { { { [ | ] | { ] n 9 | | [ | } | | | | ",
"| | | | | | | | | 1 P [ } [ | | | | | | | | | | | | | | | | | | | | | | | } { N 9 | | [ | } | | | | ",
"| | | | | | | | ` , L | | ' ] { } } } } } } } } } } } } } } } } { [ | _ { ( _ n 9 | | [ | } | | | | ",
"| | | | | | | | } ; D ( | | | { | | | | | | | | | | | | | | | | | } | ' | [ | C 9 | | [ | } | | | | ",
"| | | | | | | | | o j d s s f g f f f f f f f f f f f f f f f f f f k a h f l w 9 | | [ | } | | | | ",
"| | | | | | | | Y z e t p u t i y y y y y y y y y y y y y y y y y y y y y y y y c J | | ] | | ' | | ",
"| | | | | | | | | [ / | | [ ( ` | | | | | | | | | | | | | | | | | | | | | | | | I | | | _ } | { | | ",
"| | | | | | | | E { | } ] | | | [ [ [ [ [ [ [ [ [ [ [ [ [ [ [ [ [ [ [ [ [ [ [ [ | | | ' _ } | | | | ",
"| | | | | | | | | | | ^ ( | | [ | | | | | | | | | | | | | | | | | | | | | | | | [ _ ` { | } } | | | ",
"| | | | | | | | [ ` ` } | | { _ | | | | | | | | | | | | | | | | | | | | | | | | | { | | | [ _ { | | ",
"| | | | | | | | { [ | | | ' { | } } } } } } } } } } } } } } } } } } } } } } } } } | | | | ' [ | | | ",
"| | | | | | | | | | | { / Q ` | | | | | | | | | | | | | | | | | | | | | | | | | ' [ [ ' ' | | | | | ",
"| | | | | | | | | | | | | | | _ } } } } } } } } } } } } } } } } } } } } } } } } | | | { | | | ` | | ",
"| | | | | | | | | | | | | | | | | | | | | | | | | | | | | | | | | | | | | | | | | | | | | | | | | | ",
"| | | | | | | | | | | | | | | | | | | | | | | | | | | | | | | | | | | | | | | | | | | | | | | | | | "
};
