/* XPM */
static char *iconmouse[] = {
/* columns rows colors chars-per-pixel */
"50 50 256 2 ",
"   c black",
".  c gray2",
"X  c #060606",
"o  c #070707",
"O  c gray3",
"+  c #090909",
"@  c gray4",
"#  c #0B0B0B",
"$  c #0E0E0E",
"%  c gray6",
"&  c #111111",
"*  c gray7",
"=  c #131313",
"-  c gray8",
";  c #151515",
":  c #161616",
">  c gray9",
",  c #181818",
"<  c gray10",
"1  c #1B1B1B",
"2  c gray11",
"3  c #1D1D1D",
"4  c #1E1E1E",
"5  c gray12",
"6  c #202020",
"7  c #232323",
"8  c gray14",
"9  c #252525",
"0  c gray15",
"q  c #282828",
"w  c gray16",
"e  c #2A2A2A",
"r  c gray17",
"t  c #2D2D2D",
"y  c gray18",
"u  c #2F2F2F",
"i  c gray19",
"p  c #313131",
"a  c #323232",
"s  c gray20",
"d  c #343434",
"f  c #393939",
"g  c #3A3A3A",
"h  c gray23",
"j  c #3C3C3C",
"k  c #3F3F3F",
"l  c gray25",
"z  c gray26",
"x  c gray27",
"c  c #494949",
"v  c #4B4B4B",
"b  c #4E4E4E",
"n  c #505050",
"m  c gray32",
"M  c #535353",
"N  c #565656",
"B  c gray34",
"V  c #585858",
"C  c #5A5A5A",
"Z  c gray36",
"A  c #626262",
"S  c #646464",
"D  c #656565",
"F  c #6A6A6A",
"G  c gray42",
"H  c #6D6D6D",
"J  c gray43",
"K  c #717171",
"L  c #727272",
"P  c #747474",
"I  c gray46",
"U  c gray48",
"Y  c gray49",
"T  c gray50",
"R  c #818181",
"E  c gray51",
"W  c #848484",
"Q  c #868686",
"!  c gray53",
"~  c #888888",
"^  c #8B8B8B",
"/  c #8D8D8D",
"(  c #909090",
")  c gray57",
"_  c #929292",
"`  c gray58",
"'  c #979797",
"]  c #989898",
"[  c #9A9A9A",
"{  c #9B9B9B",
"}  c #9D9D9D",
"|  c gray62",
" . c #9F9F9F",
".. c #A0A0A0",
"X. c gray63",
"o. c #A4A4A4",
"O. c #A5A5A5",
"+. c gray65",
"@. c gray66",
"#. c #A9A9A9",
"$. c #AAAAAA",
"%. c gray67",
"&. c #ACACAC",
"*. c gray68",
"=. c #AEAEAE",
"-. c #AFAFAF",
";. c gray69",
":. c #B1B1B1",
">. c #B2B2B2",
",. c gray70",
"<. c #B4B4B4",
"1. c #B7B7B7",
"2. c gray73",
"3. c #BBBBBB",
"4. c gray",
"5. c #C0C0C0",
"6. c #C1C1C1",
"7. c #C3C3C3",
"8. c #C5C5C5",
"9. c gray78",
"0. c #C8C8C8",
"q. c #CACACA",
"w. c #CBCBCB",
"e. c gray80",
"r. c #CDCDCD",
"t. c #CECECE",
"y. c gray81",
"u. c #D0D0D0",
"i. c gray82",
"p. c #D2D2D2",
"a. c LightGray",
"s. c gray83",
"d. c #D5D5D5",
"f. c gray84",
"g. c #D8D8D8",
"h. c gray85",
"j. c #DADADA",
"k. c gray86",
"l. c gainsboro",
"z. c #DDDDDD",
"x. c gray87",
"c. c #DFDFDF",
"v. c gray88",
"b. c #E1E1E1",
"n. c #E2E2E2",
"m. c gray89",
"M. c #E4E4E4",
"N. c gray90",
"B. c #E6E6E6",
"V. c #E7E7E7",
"C. c gray91",
"Z. c #E9E9E9",
"A. c #EAEAEA",
"S. c gray92",
"D. c #ECECEC",
"F. c gray93",
"G. c #EEEEEE",
"H. c #EFEFEF",
"J. c gray94",
"K. c #F1F1F1",
"L. c gray95",
"P. c #F3F3F3",
"I. c #F4F4F4",
"U. c gray96",
"Y. c #F6F6F6",
"T. c gray97",
"R. c #F8F8F8",
"E. c #F9F9F9",
"W. c gray98",
"Q. c #FBFBFB",
"!. c gray99",
"~. c #FDFDFD",
"^. c #FEFEFE",
"/. c white",
"(. c black",
"). c black",
"_. c black",
"`. c black",
"'. c black",
"]. c black",
"[. c black",
"{. c black",
"}. c black",
"|. c black",
" X c black",
".X c black",
"XX c black",
"oX c black",
"OX c black",
"+X c black",
"@X c black",
"#X c black",
"$X c black",
"%X c black",
"&X c black",
"*X c black",
"=X c black",
"-X c black",
";X c black",
":X c black",
">X c black",
",X c black",
"<X c black",
"1X c black",
"2X c black",
"3X c black",
"4X c black",
"5X c black",
"6X c black",
"7X c black",
"8X c black",
"9X c black",
"0X c black",
"qX c black",
"wX c black",
"eX c black",
"rX c black",
"tX c black",
"yX c black",
"uX c black",
"iX c black",
"pX c black",
"aX c black",
"sX c black",
"dX c black",
"fX c black",
"gX c black",
"hX c black",
"jX c black",
"kX c black",
"lX c black",
"zX c black",
"xX c black",
"cX c black",
"vX c black",
"bX c black",
"nX c black",
"mX c black",
"MX c black",
"NX c black",
"BX c black",
"VX c black",
"CX c black",
"ZX c black",
"AX c black",
"SX c black",
"DX c black",
"FX c black",
"GX c black",
"HX c black",
"JX c black",
"KX c black",
"LX c black",
"PX c black",
"IX c black",
"UX c black",
/* pixels */
"/.R.T./././././.~././.~.I.E././././././././././././././././././././././././././././././././././././.",
"R././././.W.E.!.R.E.Q.^./././.W././././././././././././././././././././././././././././././././././.",
"R././.!.!.^./././.~.R.Q././././././././././././././././././././././././././././././././././././././.",
"/./.E.U././.Q././.~.^./.Q.Y.~./././././././././././././././././././././././././././././././././././.",
"/.!.Q././.!.L.T.Y.R././././.!.^././././././././././././././././././././././././././././././././././.",
"/.E././.Q.!./././././.~./././.R././././././././././././././././././././././././././././././././././.",
"/.R././.F././.M.Z.Q./.R.Y././.~././././././././././././././././././././././././././././././././././.",
"/.P././.P./.F.U R 8././.W.!./.!././././././././././././././././././././././././././././././././././.",
"!./.R./.W./.U.D w 2 7 L a././././.^./.T././.I././.I././.!././.Q.E././.E.U.!././././././././././././.",
"/./.P./.Q.^./.=.z F.w.L ; < F 6./.!./.!././.U././.E./.E.!./.E./././././././.Q.G././././././././././.",
"/./.L././.R./.P.  c.!././.v.I 6 4 K t.G././.!.E.!.Q./.~././.K./.Q.I.L.W././././././././././././././.",
"Q./.W././.Y././.C o./.I.P.Y.T./.u.T d 9 J 8.D././.I.R.W.W././././././././.W././././././././././././.",
"Y././././.!.Q.!.;.t W././.~.R./.R.D.U.p.L 2 g 1.U.L././.V././.M.Q.Q./././.Q.W.^././././././././././.",
"Q././.T.^././.!.T.: i.^./././.^./.^.~././.K.k.I.h.h c y././././././.E.U.Q././.^././././././././././.",
"/././.Q.^././././.A ! ~.!.Q.!./.S././.R.Q./.!.Q./.8.I 7 & V <.^.P./././.!././.^././././././././././.",
"/.I././././.^.^./.*.s ^././.L././.Q.~././.~.G./.L././.T.f.I * ; S ;.I./.E.~././././././././././././.",
"/./././././././.~.Q.$ x./.U.^././././././././././.R.!.W.P././.e.P 5 $ Z 4.R././.^.^.^.^.^.^.^.^././.",
"/./././././././.R./.m ~ /././.~././././././././.C./././.!././.J.I./.k.) r o A =.^.^.^.^.^.^.^.^././.",
"/./././././././.W./.<.t !././.E./././././././././.!.K././.R.T./.I././.K./.9.6 + ^.^.^.^.^.^.^.^././.",
"/././././././././.I.Q.1 n.E./.R././././././././.Y./././.W././.Y.R./.Y.P.L   L /.^.^.^.^.^.^.^.^././.",
"/././././././././.I./.C Q /./.E./././././././././.L.E./.R././.~./.K.` - V L.Q.L.^.^.^.^.^.^.^.^././.",
"/./././././././.~./.^.>.0 /./.~./././././././././.W././.K.F.^.T.( t u 0./.Q./.T.^.^.^.^.^.^.^.^././.",
"/./././././././.~./.R.J.5 h.!./././././././././.Y./.I.Z././.-.n t &././.U.^.L./.^.^.^.^.^.^.^.^././.",
"/././././././././.I././.m ] U./././././././././././.!./.l.j & ' !./.I.R././.U./.^.^.^.^.^.^.^.^././.",
"/././././././././.~.Q./.+.4 Q.^././.T.D././.J./.R./.~./.X D F.T././.R./././.D./././././././././././.",
"/./././././././.W./.R.!.n.& B.E.P././.^./.C./.~./.Q.Q.I.#.  g./.T.L././.R.J./.D././././././././././.",
"/./././././././.W./.~.R./.z _ /./.^./././.G./.!./.S././.T.#.  t././.K.L././.H./././././././././././.",
"/././././././././.Y./.~./.*.8 /./.^.!./././.L./.D./.~.W./.~.^ q 0.D./.!.S././.^././././././././././.",
"/././././././././.F./.!.T.P.o z.Y.W././.R././.8.9 w./.G././././ = n.~./.U.T./.Q././././././././././.",
"/././././././././.U./.U./.R.M ! /.~./.W./.T./.l v = r./.W.Y././.( ; r.D./.W./.!././././././././././.",
"/././././././././.!./.T./.R.:.i /./.W.W././.&.e /.n., s./.L.^.!.Q.%.. i.!./.B./././././././././././.",
"/././././././././.E././.R./.v.  v.^././.Y./.e ) W./.8.3 i.Q./.Q././. .> 3./././././././././././././.",
"/./././././././.!./.!./.U./.I.B E /.E.E./.X.q ~././.R.u.5 z.K./././.J.$.O h./.F./.!.E./.^./.J./././.",
"/./././././././.Q./.T./.~././.[ d K./.E.L.0 <././.J././.0.* D.W.~././.U.<.  5././.C././.F././.E././.",
"/./././././././.W./.U././.!./.m.@ d.!./.Y k /.!.E./././.^.t.< 8./.U.W./.~.@.% f./././.N././.V./././.",
"/./././././././.R./.R././.Y././.l } R.C.; i./.T./.K./././.Q.f.a 7./.~././.K.' % 2.~././.U./.I./././.",
"/./././././././.Y././.W./.Q.^./.O.p /.G N /.~./.U././.U.~././.1.e <./././././.| 8 u.S././.Q././././.",
"/./././././././.T././.Q./././.!.L.  ;.6 c.Q./.!./.E./.G./.S././.q.e p./.R.Q.W.~.{ > Z.Q.n./.L./././.",
"/././././././././.^./././././././.h y H /.Q./.T./.K./.R././.Y.Q./.w.< e.~./././.!.W b ~./.m./.T././.",
"/././././././././.Y.^./.Q.!.!./.W.$.# B./.~././.T./.^./.T.~./.^.~./.f.5 q.E./.Q.W.q.f /.!./.!./././.",
"/./././././././././././././././.~.Y.K.Y./././.R././././././././.^./.Y.p.0 y.G./.W.;.k Q./.U.U./././.",
"/././././././././././././././././.W.Y.W./././.Q././././././././.^.R./.!.p.; &.,...  N./.Y././.Q././.",
"/./././././././././././././././././.~.^./././.^./././././././././.D./.U./.y.k % x p./.j./.Q./.Q././.",
"/././././././././././././././././././././.^./././././././././././././.G.^./.Y./.B./.A./.L.Y./.E././.",
"/./././././././././././././././././././.~.!.~./././././././././././.A././.b./.G./.I.W.^././.K./././.",
"/./././././././././././././././././././.~.!.!.~././././././././.!.T././.x./.!.^.C././.J.E././.E././.",
"/./././././././././././././././././.^.^././.^.~./././././././././.T.W.!./.R./././.Q././.Q./.v./././.",
"/./././././././././././././././././.~.^./././.^././././././././.P./.W.^././.~./.^.R.W.!./.T./.J././.",
"/./././././././././././././././././././././././././././././././././././././././././././././././././.",
"/./././././././././././././././././././././././././././././././././././././././././././././././././."
};
