/* XPM */
static char *iconwall[] = {
/* columns rows colors chars-per-pixel */
"50 50 256 2 ",
"   c black",
".  c #010101",
"X  c #020202",
"o  c gray1",
"O  c #040404",
"+  c gray2",
"@  c #060606",
"#  c #070707",
"$  c gray3",
"%  c #090909",
"&  c gray4",
"*  c #0B0B0B",
"=  c #0C0C0C",
"-  c #0E0E0E",
";  c gray6",
":  c #101010",
">  c #111111",
",  c gray7",
"<  c #131313",
"1  c gray8",
"2  c #161616",
"3  c #191919",
"4  c #1E1E1E",
"5  c gray12",
"6  c #202020",
"7  c gray15",
"8  c gray16",
"9  c #2A2A2A",
"0  c gray17",
"q  c #2C2C2C",
"w  c #2D2D2D",
"e  c gray18",
"r  c gray20",
"t  c #373737",
"y  c gray22",
"u  c #393939",
"i  c #3A3A3A",
"p  c gray23",
"a  c #3C3C3C",
"s  c gray24",
"d  c #3E3E3E",
"f  c #3F3F3F",
"g  c gray25",
"h  c #414141",
"j  c gray26",
"k  c #434343",
"l  c #444444",
"z  c gray27",
"x  c #464646",
"c  c #484848",
"v  c #494949",
"b  c gray29",
"n  c #4B4B4B",
"m  c gray30",
"M  c #505050",
"N  c gray32",
"B  c #555555",
"V  c gray34",
"C  c #5B5B5B",
"Z  c #5F5F5F",
"A  c #606060",
"S  c gray38",
"D  c #626262",
"F  c gray39",
"G  c #646464",
"H  c gray40",
"J  c #676767",
"K  c DimGray",
"L  c #6A6A6A",
"P  c gray42",
"I  c #6C6C6C",
"U  c #6D6D6D",
"Y  c gray43",
"T  c gray44",
"R  c #727272",
"E  c gray45",
"W  c #747474",
"Q  c gray46",
"!  c #767676",
"~  c #777777",
"^  c gray47",
"/  c #797979",
"(  c gray48",
")  c #7B7B7B",
"_  c #7C7C7C",
"`  c gray49",
"'  c #7E7E7E",
"]  c gray50",
"[  c #808080",
"{  c #818181",
"}  c gray51",
"|  c #838383",
" . c #848484",
".. c gray52",
"X. c #868686",
"o. c gray53",
"O. c #888888",
"+. c #898989",
"@. c gray54",
"#. c #8B8B8B",
"$. c gray55",
"%. c #8D8D8D",
"&. c #8E8E8E",
"*. c gray56",
"=. c #909090",
"-. c gray57",
";. c #929292",
":. c #959595",
">. c gray59",
",. c #979797",
"<. c #9A9A9A",
"1. c #9B9B9B",
"2. c gray66",
"3. c #A9A9A9",
"4. c gray67",
"5. c gray68",
"6. c #B2B2B2",
"7. c gray70",
"8. c #B4B4B4",
"9. c gray71",
"0. c #B6B6B6",
"q. c #B7B7B7",
"w. c gray72",
"e. c #B9B9B9",
"r. c gray73",
"t. c #BBBBBB",
"y. c #BCBCBC",
"u. c gray74",
"i. c gray",
"p. c gray75",
"a. c #C0C0C0",
"s. c #C1C1C1",
"d. c gray76",
"f. c #C3C3C3",
"g. c gray77",
"h. c #C5C5C5",
"j. c #C6C6C6",
"k. c gray78",
"l. c #C8C8C8",
"z. c gray79",
"x. c #CACACA",
"c. c #CBCBCB",
"v. c gray80",
"b. c #CDCDCD",
"n. c #CECECE",
"m. c #D0D0D0",
"M. c LightGray",
"N. c gray90",
"B. c #E7E7E7",
"V. c gray91",
"C. c #E9E9E9",
"Z. c #EAEAEA",
"A. c gray92",
"S. c #ECECEC",
"D. c gray93",
"F. c #EEEEEE",
"G. c #EFEFEF",
"H. c gray94",
"J. c #F1F1F1",
"K. c gray95",
"L. c #F3F3F3",
"P. c #F4F4F4",
"I. c gray96",
"U. c #F6F6F6",
"Y. c gray97",
"T. c #F8F8F8",
"R. c #F9F9F9",
"E. c gray98",
"W. c #FBFBFB",
"Q. c gray99",
"!. c #FDFDFD",
"~. c #FEFEFE",
"^. c white",
"/. c black",
"(. c black",
"). c black",
"_. c black",
"`. c black",
"'. c black",
"]. c black",
"[. c black",
"{. c black",
"}. c black",
"|. c black",
" X c black",
".X c black",
"XX c black",
"oX c black",
"OX c black",
"+X c black",
"@X c black",
"#X c black",
"$X c black",
"%X c black",
"&X c black",
"*X c black",
"=X c black",
"-X c black",
";X c black",
":X c black",
">X c black",
",X c black",
"<X c black",
"1X c black",
"2X c black",
"3X c black",
"4X c black",
"5X c black",
"6X c black",
"7X c black",
"8X c black",
"9X c black",
"0X c black",
"qX c black",
"wX c black",
"eX c black",
"rX c black",
"tX c black",
"yX c black",
"uX c black",
"iX c black",
"pX c black",
"aX c black",
"sX c black",
"dX c black",
"fX c black",
"gX c black",
"hX c black",
"jX c black",
"kX c black",
"lX c black",
"zX c black",
"xX c black",
"cX c black",
"vX c black",
"bX c black",
"nX c black",
"mX c black",
"MX c black",
"NX c black",
"BX c black",
"VX c black",
"CX c black",
"ZX c black",
"AX c black",
"SX c black",
"DX c black",
"FX c black",
"GX c black",
"HX c black",
"JX c black",
"KX c black",
"LX c black",
"PX c black",
"IX c black",
"UX c black",
/* pixels */
"^.^.^.^.^.^.^.^.^.^.^.^.^.^.^.^.^.^.^.^.^.^.^.^.^.^.^.^.^.^.^.^.^.^.^.^.^.^.^.^.^.^.^.^.^.^.^.^.^.^.",
"^.^.^.^.^.^.^.^.^.^.^.^.^.^.^.^.^.^.^.^.^.^.^.^.^.^.^.^.^.^.^.^.^.^.^.^.^.^.^.^.^.^.^.^.^.^.^.^.^.^.",
"^.^.^.^.^.^.^.^.^.^.^.^.^.^.^.^.^.^.^.^.^.^.^.^.^.^.^.^.^.^.^.^.^.^.^.^.^.^.^.^.^.^.^.^.^.^.^.^.^.^.",
"^.^.^.^.^.^.^.^.^.^.^.^.^.^.^.^.^.^.^.^.^.^.^.^.^.^.^.^.^.^.^.^.^.^.^.^.^.^.^.^.^.^.^.^.^.^.^.^.^.^.",
"^.^.^.^.^.^.^.^.^.^.^.^.^.^.^.^.^.^.^.^.^.^.^.^.^.^.^.^.^.^.^.^.^.^.^.^.^.^.^.^.^.^.^.^.^.^.^.^.^.^.",
"^.^.^.^.^.^.^.^.^.^.^.^.^.^.^.^.^.^.^.^.^.^.^.^.^.^.^.^.^.^.^.^.^.^.^.^.^.^.^.^.^.^.^.^.^.^.^.^.^.^.",
"^.^.^.^.^.^.^.^.^.^.^.^.^.^.^.^.^.^.^.^.^.^.^.^.^.^.^.^.^.^.^.^.^.^.^.^.^.^.^.^.^.^.^.^.^.^.^.^.^.^.",
"^.^.^.^.^.^.^.^.^.^.^.^.^.^.^.^.^.^.^.^.^.^.^.^.^.^.^.^.^.^.^.^.^.^.^.^.^.^.^.^.^.^.^.^.^.^.^.^.^.^.",
"~.E.^.T.^.W.W.^.^.^.Q.^.R.^.Q.^.^.~.Q.R.^.Q.!.^.T.!.E.^.^.U.^.T.^.^.^.^.^.^.^.^.^.^.^.^.^.^.^.^.^.^.",
"^.R.^.I.^.^.^.T.^.^.Q.^.U.^.U.R.Q.Q.^.^.^.^.!.W.^.L.^.S.^.^.^.W.^.^.^.^.^.^.^.^.^.^.^.^.^.^.^.^.^.^.",
"^.U.^.T.Q.^.^.c.Q %. .O.] %.] { } O.] ] ] $.X.../ #.^.0. .} :.^.^.^.^.^.^.^.^.^.^.^.^.^.^.^.^.^.^.^.",
"^.L.^.^.W.^.E.-.f ~ ^ ] ~ { ( ` ( } V 7 R / ~ } ~  .R.3._ E ; f.^.^.^.^.^.^.^.^.^.^.^.^.^.^.^.^.^.^.",
"^.I.^.^.W.^.E.! >.K.!.^.W.^.^.^.~.^.p.N ^.Y.U.^.^.L.^.L.^.^.X d.^.^.^.^.^.^.^.^.^.^.^.^.^.^.^.^.^.^.",
"^.Q.^.!.E.^.^.' [ I.^.^.Q.W.~.^.W.^.r.9 ^.R.E.^.Y.T.T.R.^.^.  b.^.^.^.^.^.^.^.^.^.^.^.^.^.^.^.^.^.^.",
"^.^.!.W.~.~.^...] ~.^.^.^.~.^.Q.~.^.f.r ^.E.^.Q.^.^.^.^.^.^.  a.^.^.^.^.^.^.^.^.^.^.^.^.^.^.^.^.^.^.",
"E.^.~.^.^.E.T.] [ ^.W.~.^.^.^.R.^.~.l.j G.L.^.T.W.^.^.^.Y.T.< 6.^.^.^.^.^.^.^.^.^.^.^.^.^.^.^.^.^.^.",
"^.~.^.~.^.^.!.{ O   .   = o   X &     $ o . X @   $ #     . &   O     , U ^.^.^.^.T.^.^.T.^.^.Q.^.^.",
"^.~.^.~.^.^.!.{ Z z.x.i.t.  k.k.q.f.j.q.j.9.9.s.H S 7.b.9.b.g.0.q.M.l.` M Q.Y.E.^.T.T.^.~.^.^.U.^.^.",
"^.~.^.~.^.^.!.{ ` ^.P.^.K.  E.^.T.^.^.S.^.W.T.^.{ ! L.^.Y.^.K.^.W.^.^.u.v ^.U.^.^.~.~.~.R.P.Q.^.^.^.",
"^.~.^.~.^.^.!.{ o.^.S.^.^.% ^.W.~.^.I.G.^.^.E.~.' @.^.I.^.^.G.^.^.U.L.k.g ^.W.^.S.E.^.^.^.^.^.^.^.^.",
"^.~.^.~.^.^.!.{ ) ^.^.^.^.  ^.Q.^.T.T.^.^.^.~.^.~ ..~.K.^.R.^.^.~.^.^.r.q Q.^.E.^.^.W.U.L.T.T.S.^.^.",
"^.~.^.~.^.^.!.{ F p.h.7.9.- p.p.i.y.d.x.p.t.u.a.U V r.s.9.8.v.e.e.u.d.1.f a.j.k.p.i.B.^.^.~.^.^.^.^.",
"^.~.^.~.^.^.!.{ : d b v p d f v f k w   k d k d h e v B f k   r n t u k e j y a i 8 @.^.^.J.E.P.^.^.",
"^.~.^.~.^.^.!.{ &.G.~.^.^.G.^.H.^.!.u.M !.^.^.L.I.^.H.!.^.L.1 q.Q.^.^.U.^.^.^.!.^.) X.P.^.^.^.^.^.^.",
"^.Y.^.^.T.E.^./ { J.^.~.U.^.!.^.J.^.h.y ^.E.Q.Q.E.^.I.Q.^.T.& f.P.^.R.^.^.^.^.^.^._ | ^.R.T.^.^.^.^.",
"^.T.Y.E.^.^.^.{ O.^.A.^.T.^.^.S.^.^.7.h ^.^.^.^.R.W.^.^.^.^.  9.!.!.P.U.^.L.~.!.^./ { ^.^.^.!.K.^.^.",
"W.Q.^.^.W.~.R.K } S.^.^.E.^.^.~.^.I.7.K G.!.~.R.^.^.E.I.^.U.3 g.^.T.^.^.^.^.^.R.~.O.@.K.Y.U.^.^.^.^.",
"R.^.^.Q.U.^.^.&.2 z c t f 6 z k k x 9 + s f g l y x y h m r   t h g M d 6 b c a t 0 o.^.^.^.^.Y.^.^.",
"Q.!.Q.Q.^.^.W.! A v.5.k.g.  b.9.i.l.k.y.g.p.i.s.D Y r.s.v.q.k.i.u.f.t.$.t r.s.f.g.h.D.^.T.K.^.^.^.^.",
"R.^.^.^.^.E.P.@.$.T.W.^.^.  ~.^.~.W.Q.Q.^.^.^.Y.[ L ^.P.I.^.^.Y.T.^.W.u.k Q.^.^.Q.^.^.^.^.^.^.Y.^.^.",
"^.^.Q.P.Y.Y.^.S.~.^.Q.C.U.> Y.^.^.!.^.E.^.^.^.Q.=./ ^.!.P.^.!.^.T.R.^.p.k ^.^.R.W.Q.^.Y.^.^.^.E.^.^.",
"!.Q.W.^.^.I.P.2.4.^.E.^.^.  ^.^.W.^.^.Q.^.!.^.~.~ +.N.^.^.E.L.^.^.L.^.7.k R.^.^.^.~.^.K.^.H.E.^.^.^.",
"^.Q.T.W.^.~.E.[ J p.s.f.r.= d.u.c.e.h.g.a.w.h.t.H S y.q.d.p.j.i.y.g.9.,.u r.l.e.n.s.^.^.A.^.^.^.^.^.",
"W.E.^.^.^.^.^. .    %     @   :     &   1   # o   X   @ &     : $   * -   $ +     + :.^.^.^.R.^.^.^.",
"W.^.^.^.^.^.Q.` <.H.^.^.F.^.C.^.^.R.u.C Z.A.^.^.^.V.^.E.H.^.: 5.^.S.^.^.^.!.^.~.~.` ) E.E.~.P.J.^.^.",
"^.^.^.T.R.^.~._ I ^.Y.^.^.Y.^.U.^.^.0.t ^.^.^.Q.^.^.Y.^.^.^.  f.^.R.^.B.^.W.^.W.^.O.! ^.L.^.^.^.^.^.",
"^.^.~.E.^.^.^.{ | R.^.V.^.R.^.H.Z.^.p.a ^.Y.L.U.!.^.G.^.I.^.  m.L.^.^.U.^.^.^.Q.I. ...^.R.I.Y.K.^.^.",
"^.Q.~.^.^.Q.U.( *.W.^.^.K.^.~.^.^.^.i.M K.Y.^.^.^.E.^.^.U.^.  0.P.^.U.!.^.I.W.^.^.( I P.^.^.^.^.^.^.",
"^.W.^.^.!.K.R.;.i ( L @.{ O. .W ' [ N 5 { X._ ^ W &.J  .] P 4 F O.o.^ } | E @.#.` h *.E.^.^.D.I.^.^.",
"^.R.Q.^.~.E.^.z.| [ %.' ( { / .._ &...Y O.| ' ..O.) [ ' { +.G +./ ] [ ` O.W *.T _ ' C.^.T.^.Q.^.^.^.",
"^.^.^.^.^.^.^.^.^.^.^.^.^.^.^.^.^.^.^.^.^.^.^.^.^.^.^.^.^.^.^.^.^.^.^.^.^.^.^.^.^.^.^.^.^.^.^.^.^.^.",
"^.^.^.^.^.^.^.^.^.^.^.^.^.^.^.^.^.^.^.^.^.^.^.^.^.^.^.^.^.^.^.^.^.^.^.^.^.^.^.^.^.^.^.^.^.^.^.^.^.^.",
"^.^.^.^.^.^.^.^.^.^.^.^.^.^.^.^.^.^.^.^.^.^.^.^.^.^.^.^.^.^.^.^.^.^.^.^.^.^.^.^.^.^.^.^.^.^.^.^.^.^.",
"^.^.^.^.^.^.^.^.^.^.^.^.^.^.^.^.^.^.^.^.^.^.^.^.^.^.^.^.^.^.^.^.^.^.^.^.^.^.^.^.^.^.^.^.^.^.^.^.^.^.",
"^.^.^.^.^.^.^.^.^.^.^.^.^.^.^.^.^.^.^.^.^.^.^.^.^.^.^.^.^.^.^.^.^.^.^.^.^.^.^.^.^.^.^.^.^.^.^.^.^.^.",
"^.^.^.^.^.^.^.^.^.^.^.^.^.^.^.^.^.^.^.^.^.^.^.^.^.^.^.^.^.^.^.^.^.^.^.^.^.^.^.^.^.^.^.^.^.^.^.^.^.^.",
"^.^.^.^.^.^.^.^.^.^.^.^.^.^.^.^.^.^.^.^.^.^.^.^.^.^.^.^.^.^.^.^.^.^.^.^.^.^.^.^.^.^.^.^.^.^.^.^.^.^.",
"^.^.^.^.^.^.^.^.^.^.^.^.^.^.^.^.^.^.^.^.^.^.^.^.^.^.^.^.^.^.^.^.^.^.^.^.^.^.^.^.^.^.^.^.^.^.^.^.^.^.",
"^.^.^.^.^.^.^.^.^.^.^.^.^.^.^.^.^.^.^.^.^.^.^.^.^.^.^.^.^.^.^.^.^.^.^.^.^.^.^.^.^.^.^.^.^.^.^.^.^.^.",
"^.^.^.^.^.^.^.^.^.^.^.^.^.^.^.^.^.^.^.^.^.^.^.^.^.^.^.^.^.^.^.^.^.^.^.^.^.^.^.^.^.^.^.^.^.^.^.^.^.^."
};
