/* XPM */
static char *icondelete[] = {
/* columns rows colors chars-per-pixel */
"50 50 256 2 ",
"   c white",
".  c #FDFDFD",
"X  c gray96",
"o  c gray97",
"O  c #FBFBFB",
"+  c #B9B9B9",
"@  c gray17",
"#  c #060606",
"$  c black",
"%  c #0B0B0B",
"&  c gray1",
"*  c #020202",
"=  c #040404",
"-  c #313131",
";  c #A9A9A9",
":  c #ECECEC",
">  c gray99",
",  c #F9F9F9",
"<  c gray98",
"1  c #F3F3F3",
"2  c #F6F6F6",
"3  c #FEFEFE",
"4  c #131313",
"5  c gray2",
"6  c #0E0E0E",
"7  c #090909",
"8  c #111111",
"9  c #151515",
"0  c gray11",
"q  c gray94",
"w  c gray6",
"e  c gray12",
"r  c gray14",
"t  c #222222",
"y  c #181818",
"u  c #161616",
"i  c #1E1E1E",
"p  c #353535",
"a  c #EFEFEF",
"s  c gray64",
"d  c #EEEEEE",
"f  c #A5A5A5",
"g  c #070707",
"h  c #0C0C0C",
"j  c #F8F8F8",
"k  c #B6B6B6",
"l  c #F4F4F4",
"z  c #B2B2B2",
"x  c gray91",
"c  c #CACACA",
"v  c #7B7B7B",
"b  c gray49",
"n  c #818181",
"m  c #7E7E7E",
"M  c #8D8D8D",
"N  c #808080",
"B  c gray50",
"V  c #838383",
"C  c gray57",
"Z  c #010101",
"A  c #606060",
"S  c #848484",
"D  c gray52",
"F  c gray47",
"G  c DimGray",
"H  c gray5",
"J  c gray51",
"K  c #E6E6E6",
"L  c gray3",
"P  c gray71",
"I  c gray4",
"U  c #B1B1B1",
"Y  c #BBBBBB",
"T  c #D7D7D7",
"R  c gray26",
"E  c #2D2D2D",
"W  c gray90",
"Q  c #E1E1E1",
"!  c #232323",
"~  c gray95",
"^  c gray9",
"/  c #F1F1F1",
"(  c gray7",
")  c gray89",
"_  c #D0D0D0",
"`  c #C1C1C1",
"'  c #2A2A2A",
"]  c gray61",
"[  c #DFDFDF",
"{  c #5B5B5B",
"}  c gray28",
"|  c gray93",
" . c #8B8B8B",
".. c gray10",
"X. c #2F2F2F",
"o. c #3F3F3F",
"O. c #AFAFAF",
"+. c #ACACAC",
"@. c #EAEAEA",
"#. c #929292",
"$. c #909090",
"%. c #939393",
"&. c gray8",
"*. c gray56",
"=. c #1B1B1B",
"-. c #101010",
";. c #686868",
":. c #7C7C7C",
">. c gray48",
",. c #505050",
"<. c gray31",
"1. c gray15",
"2. c #202020",
"3. c #676767",
"4. c #484848",
"5. c #323232",
"6. c #6A6A6A",
"7. c #191919",
"8. c #5F5F5F",
"9. c gray19",
"0. c #535353",
"q. c #4E4E4E",
"w. c #272727",
"e. c #4C4C4C",
"r. c #464646",
"t. c gray23",
"y. c #434343",
"u. c gray27",
"i. c #3A3A3A",
"p. c #767676",
"a. c #1D1D1D",
"s. c #868686",
"d. c #282828",
"f. c #A7A7A7",
"g. c gray13",
"h. c gray76",
"j. c gray86",
"k. c gray21",
"l. c gray25",
"z. c #3C3C3C",
"x. c gray88",
"c. c #414141",
"v. c #CBCBCB",
"b. c #555555",
"n. c gray34",
"m. c #AEAEAE",
"M. c #B7B7B7",
"N. c #A4A4A4",
"B. c #979797",
"V. c #A2A2A2",
"C. c gray",
"Z. c gray66",
"A. c gray68",
"S. c #AAAAAA",
"D. c #8E8E8E",
"F. c gray70",
"G. c #565656",
"H. c gray74",
"J. c #585858",
"K. c gray83",
"L. c gray18",
"P. c #252525",
"I. c gray92",
"U. c gray62",
"Y. c black",
"T. c black",
"R. c black",
"E. c black",
"W. c black",
"Q. c black",
"!. c black",
"~. c black",
"^. c black",
"/. c black",
"(. c black",
"). c black",
"_. c black",
"`. c black",
"'. c black",
"]. c black",
"[. c black",
"{. c black",
"}. c black",
"|. c black",
" X c black",
".X c black",
"XX c black",
"oX c black",
"OX c black",
"+X c black",
"@X c black",
"#X c black",
"$X c black",
"%X c black",
"&X c black",
"*X c black",
"=X c black",
"-X c black",
";X c black",
":X c black",
">X c black",
",X c black",
"<X c black",
"1X c black",
"2X c black",
"3X c black",
"4X c black",
"5X c black",
"6X c black",
"7X c black",
"8X c black",
"9X c black",
"0X c black",
"qX c black",
"wX c black",
"eX c black",
"rX c black",
"tX c black",
"yX c black",
"uX c black",
"iX c black",
"pX c black",
"aX c black",
"sX c black",
"dX c black",
"fX c black",
"gX c black",
"hX c black",
"jX c black",
"kX c black",
"lX c black",
"zX c black",
"xX c black",
"cX c black",
"vX c black",
"bX c black",
"nX c black",
"mX c black",
"MX c black",
"NX c black",
"BX c black",
"VX c black",
"CX c black",
"ZX c black",
"AX c black",
"SX c black",
"DX c black",
"FX c black",
"GX c black",
"HX c black",
"JX c black",
"KX c black",
"LX c black",
"PX c black",
"IX c black",
"UX c black",
/* pixels */
"                                                                                                    ",
"                                                                                                    ",
"                                                                                                    ",
"                                                                                                    ",
"                                                                                                    ",
"                                                                                                    ",
"            .         X   o       O + @ # $ % & $ * $ $ # = $ - ; : >                               ",
"            , < 1 ,       2   > 3 3 4 $ 5 6 % & $ 7 $ * $ 8 9 $ 0     < q             > .           ",
"            o >   3 3 > O   , 3 O O $ w $ e r t y t u y i p $ $ $ a 3                   3           ",
"                > o o       1 ,     $ 7 & s o d 1 3 > .   f % g h < >   O                           ",
"            . < . O o , > 3 j 3 O 3 5 & $ k   o   3 l 1 3 z $ 9 $   x X j , , , , , ,               ",
"            3 c v b n m M N B N V C & Z $ A C v S m N D F G $ $ H J V F V J J J J J J K 1           ",
"              ; g $ & $ $ H = = $ $ Z Z Z Z Z Z Z Z Z Z Z Z Z * $ * 5 = * 5 & $ $ L * P >           ",
"            . z H % # Z L L $ % 8 L I I I I I I I I I I I I I 7 L I % h H $ I g & 7 $ U o           ",
"            . Y $ g $ # $ $ w g H $ $ $ $ $ $ $ $ $ $ $ $ $ $ $ $ $ $ $ * Z L $ L L $ Y j           ",
"                    T $ = R o <     O O O O O O O O O O O O O j 3 < , . , E * Z W o   2             ",
"              o a o Q # $ ! ~ ~ < :                           .   3     1 ^ $ = o /                 ",
"              . ,   < # I ( q .   3 O O O O O O O O O O O O O j 3 j O   ) 5 Z 7                     ",
"              < > ,   * * % _ 3 .     .         2   q           o   , o c $ g $ . . X               ",
"              < . ,   * * * ` 3 , q ' @ @ ] . [ { E } |    ...X.o.1 3   O.$ 7 Z   3 j               ",
"              O 3 ,   Z % $ +.    @.$ % $ #.  : ( g 9 X    .7 $ # .     $.* 7 Z     <               ",
"              >   j   Z w $ %.j   . * &.$ *.>   =.= 8 X ) b g -.=   , < S * L $   . >               ",
"              .   j   $ L 5 ;./ , > h I 8 :.  d &.$ ( @.  >.* -.#   3 > ,.Z 5 $ > < 3               ",
"              3   j   $ L g <.. . , $ = Z ;.j | 1.= 2.<   3.* $ Z j j 3 4.& # $ . O                 ",
"              3   j   $ 5 $ 5.    < * -.$ 6.  / 7.I H ~   8.Z $ H 3     9.= g $ 3 >                 ",
"              <   <   8 * $ 0 O . O $ g $ 0.  : ..Z 8 < O q.$ g &   l   -.$ L =.  3                 ",
"              >   ,   w.& $ 6 > < > $ 5 $ e.  q ..$ 4 j > r.$ * *   o   5 $ g X.                    ",
"              3   O   t.& $ 5   j < * & $ y.  l ..$ 9 2 . t.Z $ &   ,   & $ 5 u.                    ",
"            .     .   e.= $ *   , , 5 & $ i.. j y $ y 1 3 9.* $ 5   <   L 5 * { <   .               ",
"            O   3 3 > p.$ h $   . 3 H & $ @ , O 4 $ 0 d   a.= * h < > . 5 7 $ S 2   O               ",
"            .   O 3 . s.$ H $ , .   w = $ d.j > 8 $ a.|   7.= * H < 3 O $ L $ C ,   O               ",
"            .     3 O f.* g = .   X 4 7 $ 4   q y 5 u /   =.$ $ !   < O & # 5 z , >                 ",
"            >     . O z & # &   3 2 y L $ 8   q y = u ~   y $ $ g.  < 3 & 5 * h.O .                 ",
"            >     . O j.# $ =   O , ' & $ %   q 7.* 9 l > w $ * ! > . . * * 5 /     .               ",
"            .     3 . | 6 $ =   . , k.$ Z #   a 7.Z &.2 O I $ & E , 3 ~ & Z &.3     >               ",
"                      < i $ & /   O l.$ * &   a ..$ 4 j , 5 * Z z.,   x.5 * '   3   .               ",
"              3 >       c.5 $ v.    e.$ = $   a ..$ ( , o $ & $ b.O   ` L & <.1 o                   ",
"            3 3 3 3 3 3 n.$ I m.3   M.N.B.U   @.+ V.C.a   + Z.N.A.    S.H $ 6.  <                   ",
"            3 3 3 3 3 3 6.$ H s   < /           < l 2     < .   < l 1 $.( $ F   >                   ",
"            3 3 3 3 3 3 N $ 7  .  q o     O X j 2 > O O j o 3 / j a   n = = D.  .                   ",
"            3 3 3 3 3 3 F.7 * G.  ~ > 3   > . . , 3 > o j   3 o , <   ,.# * H..   3                 ",
"            3 3 3 3 3 3 U $ $ J.o , < .   3 , j j . < j O > 2 . O 3 a ,.# * K.O   >                 ",
"            3 3 3 3 3 3 ) 8 $ $ L.g.g...u =.r e ..0 e r P.y 9 ! ..2.w.$ h # @.>   < 3               ",
"            . 3       . I.R $ $ L $ Z Z Z Z Z Z Z Z Z Z Z Z Z & Z * Z $ L t.I.                      ",
"            . 3       .   N -.$ L $ Z Z Z Z Z Z Z Z Z Z Z Z Z & $ * Z $ L U.  . O   >               ",
"                                                                                                    ",
"                                                                                                    ",
"                                                                                                    ",
"                                                                                                    ",
"                                                                                                    "
};
