/* XPM */
static char *nuke[] = {
/* columns rows colors chars-per-pixel */
"64 64 16 1 ",
"  c black",
". c #0B1707",
"X c #13230B",
"o c #17330F",
"O c #1F4317",
"+ c #27531B",
"@ c #2F6323",
"# c #37732B",
"$ c #3F832F",
"% c #4B9F3F",
"& c black",
"* c black",
"= c black",
"- c black",
"; c black",
": c black",
/* pixels */
"..XXXXooO@OooXXXX....X.XXXoXoooooOOoOOoOOooXXXXXXXXXXXoO@@+OOOX.",
"X.XXXXooo+@OooXXXX....XXXXoXXoooooXoOOooOoooooXXoXXXXXXo@O+OooOo",
"oXXXXooXXo@@@OXXXXX...X.XXoXXooXXXXXXXXooooooXXXXXXXXXXXOOoOoXXX",
"XXoOoOXXXo+@@@@oOOOXXXXXXooXoXXXXXXXXXXXXXooXooXXXXXXXXXoOoXXXXX",
"XXXooOOoXOO@@@@@@+OOoooOXoXoXXXXXXXXXXXXXoXooXoXXXX...XXXOoXXXXX",
"XXXXXXOOOOO+@@@@@+OoXXXoooooXXXXXX......XXOXOoOoXX....XXXooXXXXX",
"XXXXXX.XoOOO+@@@@+oooXXXXoXOXXXX...........OOOX+XoXXXXooXoXoXXXX",
"XXXXX...XoOO+@@+@+OoooXXXooOoXXX.........XoXOo+OOoooXooXXXXooXXX",
"XXXXX....XoO+@@+++OoooooooooXooX.......XXXXOO+O@oXXoXoXXXoXoXXXX",
"XXXX.....XXoO+@+++OoXoXXXooooXoXXX...XXXXXOO++@++ooXXXXXXXXXXXXX",
"XXXXX.....XXOO+@++OoXXXXXXXXXoXXXXXXXXXXXOXO+O+OOOXXXXX.....XoXX",
"oXXXXX....XXOOO+++OoXXXXXXXXXXXXXXXXooXOOOO++OOXOoXXXX.......XXo",
"ooXXXXXXXXXXoO++++OooXXXXXXXXXoXXXooOO++O+++++OooOXXX.........Xo",
"XooXXXXXXoooOoO+OOOOXXX...XXXXooooXoO+OooooXoO+Oo+XXX.........XX",
"XoOoXXXXoooOoooooooXOoX....XXXoooooOOOooX....XO+OooX.........XXX",
"XXO+OoXoXooXOoXXXXXX.XoXX..XXXXo+OOOOOoXX.. ..XoO+OX........XXXX",
"XXoOOoXoXooXooXXXXX....XoX..XXXoO+oOOOXXX..  ..OOOOoXX....XXXXXX",
"oOoOoXXXXoooooXXXXX.....XXoXXXXOoooooOoXXX....XO+@OoXOXXXXXXXXXo",
"oooXXX...XXXoOXXXXX......XXOOoooXoXoOooXXXXXXXoO@@OoooooOOooooOO",
"OOOoX......XXoXoXXX......XXXO++ooooXoOoXoXXXXXX+@#@OXoooXXoOOOO+",
"+OOoXXX....XXXXoXXXXXXXXXXXXo++OoOXoXOOOoooXXo@@#@@+OOoooooooOOO",
"OOOOOoXXX..XXXXXXXXXXXXXXXXXXoOooXXXXXXoO+OOOO+###@+OoXXXXXXXXoO",
"oOO@OOOoooXXXXXXXXXXXXXXXXXXXoOOX.....XXXo++O+@#$$@oXX......XXXX",
"XO+@@+OOOOOoXXXXXXXoXXXXXXXXXOoo.X.....XXXoO+#@$##@oXX.......XXX",
"XXOO@@+OOOOOoXXXXXXXXXXXXXoXoXO.o......XXXoo+@##@@OOoX........XX",
"XXo+@++++++OOoXXXXXXXXXXXoooXoXX.X....XXXXoOO++@+++OOX........XX",
"XXo+@+++++O+OOoX...XXXXXXoXXoXXXX....XXXXXooOOoOOOO+OoX.......XX",
"oOoO@+OOOOOOOOOOXXXXXXX.XXXoXXoXX..XXXXXXooOOooooOOOOOOoX....XXX",
"oO++@++ooOooooXoOoooXX..XXXXXXXXXXXXXXXXXoOooOoXXoOOOOOOOX.XXXXo",
"OoO++OoooXXXoXX.XooXX...XXXXXXXXXXXXXXXoXooooooXXXXOOO+O+OoXoooo",
"O+O@@OoXXooXXXX..XoOX...XXXXoXXXXXoXXoXXXXXXXXooXXXXoOOOO++OO+OO",
"XooO++OoooooXXXXXX.XoXXXXXXoooXXXXXoXoXXXXXXXXXoXXXXoOO+O+OOOoOo",
"...XXOOoXXoXXXXXXXXXXOooXXXooXXXXXXXXXoXXXXXXXXXoXXXXOOO++OOoOXX",
"...XXXoOOXXXoXXXXXXXXoOOOXoXXXXXXoXXXXoXX...XXXXXoXXoOOO@O+OOoX.",
"..XXXoXXoOoooXooXXXXoooO+oXXXXXXXXXoXXXo.o...XXXXooXoOOO+@+OooX.",
".XXXXXXXXoO+OooooooooooO+OoXXXXXXXXXXXX.ooOXoXXoXOOOooO+@@++OoX.",
"XXXXoXXXXXXO+++++OOOOoooo+OoXX...XXXXXXXoOoo.OoXXooOo+O+@@@+OOXX",
"XXXXXXXXXX.XO@@+@@++++OoOO@OOOoXXXXXooooOoO.XXXXXoXXXoO+@@+@++Oo",
"oXXoXXXXX...XO+@@@@###+OO@++ooXXooooOOOO+OoXXXXXoXXXXXooOOO@++OO",
"OoXXXXXX.....XO+@##$%$#@@@@+OoX..XXOOOO+++OXXXXXXX....XXXOOO+@+O",
"OoOoXXX......XXO+@$$%%%$##@++oX..XXooOO+++oXXXXX...   ...XXOO++O",
"OO+OXXXX...XXXXO@@%%%%$##@@+OOXXXXXXXXoO++OXXXX..       ..XXOO+O",
"OoOOOoXXXXXXXXoo@##$#@@OO@+++OoXXXXXXXXoOOOooXX..        ..XoO+O",
"OoooooOoXXXXXXOO@#@+OOoooooOOO+OoXXXXXXXooOooXXX..       ..Xoo+O",
"OoOOoXoOOOOoo+O+#@+oooXXXXXoooO+OoXXXXXXXoOOooXXX..      ..XXoOO",
"OO+OOoXXoO++O+@@++OooXXXXXXXooXoOOOXX..XXXoOooXXX...    ...XXoOO",
"OOOOOOOOOOO@+##@++OOXXXXXXXXooXXXXoOoXXXXXXOOOoXX...   ...XXXXOO",
"OoOooXXXXXooO@@@@+OOXX....XXXoXXXXXoOOooXOXO++OOXXX.....XXXXXoOO",
"OOOoXXXXXXXXXO+OO+OOoXX...XXXoXXXX.XXoOoOOOOO+++OOoXX...XXXXXOOo",
"OOoooXXXXXXXXXOOOOOOOOOX..XXXooXXX..XOoooOOoOOOOOOOOOOOOOOooOOOO",
"ooXooXXXX.XXXXo+OooooooOXXXXXooXXX.X.XOOoXXXooooooooOOOooooOOooo",
"ooXXoXXXX...XXoO@OXXXXXXoOXoXooXXXXXXXOOOoXXoXXXXXXoooooO+oooOoo",
"ooXXoXX.X.X..Xo++O+OoXXXXXoOoOoXXXXXXXo+OoXXXXXXXXXXXXXXXO+OOOOo",
"ooXXXXXXXXX.XooO+#@#+ooXXXXXO+OoooXXXXOo@ooXXXXXXXXXXXXXXoo@@OOo",
"ooXXX.X.XX.XXoXO@@#@@OoXXXXooOOooooooXO@@OoXXXXXXXXXXXXXXXooO@oo",
"ooXXX.XXX.XXXooO@####OooXXooooXooO+OOO@@@+OoXXXXXX...XXXXXoooO+O",
"+ooOXoXX...XXooo@@#@@+OooooooXXXXOO@+@#@@@@OoXX.......XXXXXoOO+@",
"@@OOXX...XXXXXoO@#@+OOoooooooXXX.XoO+@@@@@++OOoX......XXXXXOO+O@",
"oO@@oXXXXXXXXXOO+OOOOXXXooooXXX..XXOO@@@+OOOOOOo......XXXXo+Oooo",
"XXo+OoXXXXXXooOooXoXoXXXXXoooXXX..XO+@@++OoXX...OX....XXXoOOoXXX",
"XXXoO@OXXoXoOooXXXXXXXXXXXXooXXXXXO+O@OOOXXXX....XoXXXXXoOOoXXXX",
"XXXXoO+OooooooXXXX..XXXXXXooooOXOO+O@+OooXXXXX....XOOOOooO+oXXXX",
".XXXXooOoOoOooXXX....XXX.XXooOO+o@O@+o+oXXXXXXXXXXXXOOOOOO+OoXX.",
"..XXXXooO+OooXXXX....XX.XXooOO@o+X+Oo@+OoXXXXXXXXXXXXoO@@@+OOX.."
};
