/* XPM */
static char *octopus[] = {
/* columns rows colors chars-per-pixel */
"64 64 64 1 ",
"  c #2B230F",
". c #332B13",
"X c #3F2F17",
"o c #43331B",
"O c #4B371B",
"+ c #533F1F",
"@ c #5F4323",
"# c #6B4727",
"$ c #774F2B",
"% c #7F532F",
"& c #775F3F",
"* c #875733",
"= c #8F5F37",
"- c #9B633B",
"; c #A36B3F",
": c #AB6F43",
"> c #B37347",
", c #BF7B4B",
"< c #CB7F4F",
"1 c #CF8353",
"2 c #D78B5B",
"3 c #DF9363",
"4 c #E79B6B",
"5 c #EFA373",
"6 c #F7AB7B",
"7 c #FFB383",
"8 c #FFBB93",
"9 c #FFBF9B",
"0 c #FFC7A7",
"q c #FFCFB3",
"w c #FFD3BB",
"e c #FFDBC7",
"r c #FFEBDF",
"t c black",
"y c black",
"u c black",
"i c black",
"p c black",
"a c black",
"s c black",
"d c black",
"f c black",
"g c black",
"h c black",
"j c black",
"k c black",
"l c black",
"z c black",
"x c black",
"c c black",
"v c black",
"b c black",
"n c black",
"m c black",
"M c black",
"N c black",
"B c black",
"V c black",
"C c black",
"Z c black",
"A c black",
"S c black",
"D c black",
"F c black",
/* pixels */
"%##%;1,,,,---$@=$=:1;@=3;@ @=;*#,8,==$@X=*-*<33<;;*O+===>14322;*",
"##>3,=;=--*#X@,=>;=;11,=@X@;1;$36351=OX%=:$-<3<=,*+O$;<311131,*$",
";13,>3>>$$X X=49,@=133>@ $:1>=,1>151$O#=:*@$=<--;$O+:<3:-;,,-*$=",
"=;=165,$XX  $qe85;;,31@ $13,=,3111>#OO#@*=>;=11;*+O$,33=$$=;=*=;",
",3163,$. XX;96133;>1,@ $,,:-:>,1>$XXO#@$=,4,-;;*+X+=;,,=@X@-;*=,",
"1221;$X @=,65,18;@;;@ .$=,1;=;1;$OXO@$;<,361=;*+XO+X*;=@X#;33,,3",
"11:$@  $,;13>2e1 :4*OOX=3381@=71O. X@;11136,$++XO+XX$=$$=:133355",
"3;$@  $,<*,858> #3=X+XX368q;X;8-  @@@;,1136;XXXO+@$$=:;==;,36668",
";$X .@-<1$;31>1;=;XX$X$648e$ =3# X@@$=;,,,,;X  @$=,36663,;:36561",
"@  X..1e811:;13:=@ X=$=38w8X <,X X@-,1686>=;@ X;13686774311331;*",
"  ## =8314,>>,<>=X @,>==,8>@,6-  +=,3469w;$1,@$,4676685343111>$X",
" @;#;61,3,=;,,,=O  $13>=*$:,=>=  @=11153>>8q,,44666453244,>>$O. ",
"@>;$:139, =>;;=@  X$,1,,16,$,5;XX@$;:1111351155356311112,,>$OX.+",
";1$#=3q, @51;$X   X$;=;6485@@,,$+@@$;,,,35311333333,3562,-$OXO+$",
"1-==*=:;$=2:$XX   $$$@=31161@@,<;$@@===>1111>:333,,34<;=$@OOO+$;",
"-113;$;,==;$@XX   @$@ X11163$=132;;:=X+$;>>,==,1>>1>>-$@OOOOO$-1",
">183;*>1;=$X.     @=$  ;133=@=3,=@=,,$$*=====;;-----=%=$@OOO@$>-",
";35;$=,;=$X       X@$@+@=33@@,0981=13,,,>;,,->,:,>>;;;===$OO@*--",
"13=$==-$@X.X@@@@XX@@@O@@@;:$:342284>>,,,-$==;1,=;;>;;>>>>;=$#-*%",
":@=1@@$@XX#=;,,,,=$==$O @*$$,531154;@=89863:-13>=>,;;-=:1>;=*##%",
"#O*=@@+#==;;;,1;=$$=,1;$XX@===13151@X38316q5$;,;>:,,=$=,;=>>=-*#",
"*$#++$==;43*$=,,1,;=;,,==$X@=O.;11,$=6411386$@$-36336,-1,*->;=:#",
"$@$+%$13383=$;,1,,3,$=,,,=#X@-==1,=$=;13246,=@X;333333,:3<*$:;=*",
"$##@=>3113=;==,3,>3,@@;,,:-$X@*-;,,;=$ X=,:,,$$,831131=$;,,,1,;=",
"=$@#=;353=:1,$$;,11*X*>-;,,=@O@*;;11>>$ $1,>,>-;33136,$==->,,$@=",
":%#@@$==@*,13=O@=;;$=36,==;;$$@@@*$$-,;==,11,;,,$$=,1,=$,3641<$@",
"=;%#;>;;>==-;=*-;,,=;1,14,@=,==@OXX X@$>-;;,,;,3>$#::,3;;331,31$",
"=;%$;*;,;=$@@$==,,@X33;;43$$1;=*@X    X+#%:;;;:,11,:,,,,;13,;13=",
";;%@$#$$#@X  $=;>,OX34>;2,#;1=;%@#.       +#%=--::::,31$@;3113,=",
";>=$@@@@X   +$;,13;$;1111*@,<--##OX.          X+$=::,:,1$X;9q,@$",
"=;=$OOX. X+$$=,1,131$@=1,$=,:=*@$%%$#@O@X       X@$=::11:#$3,=-=",
";-%$OX.XX#==;;;==,1<$@=;$,1;*%--:-:-;;;;>=$@X      O$=;,==16,===",
",;%$XXo+@*-1,-13166,=;;-,,:%-:111>>1,1>>1,>;-$@X    O$-3;=131333",
"3=$$X++@@->==1433133;$;,;%=;;:,,,,;;,,;;,11>,;-$@X  XO%>1;;*,855",
"3=@=@X+@+=@=--,2111;=,,$XX$>;;;==;=,1;;,1::,11,>-$@XXX%>31X@5824",
",#@-+$$%#$=,=$,1,,$@==@X@$=,,;;;;,,==$X*>>>,,:11,:=#@@=>1, -8316",
";.@-@@%&#$=;$$=;$@@X.@*$@$===;,;==>,165=$;,,:-,21:,:-->11-@,8316",
"*O*#X$%$#%#;,;=$$@  $=$X$,32121;=;33<1qq,=,,;-;,:-,1,1:1,$$36154",
";*$XX#@+o@##@@XX  X*>=$;332,43,:=;31,1683=$$=$$$;:,1:,:,====;,,;",
";$+ $o..XOXXX    $-,-@=31,,156,$=,33,163;=;;3631;=,,;$=:,,-;==;,",
"=$XOX.XXOXX     @,6,$$=,511131===$=:,13,$=-,3,,32$=;,11461;*$-;;",
"=+O@O.OOO@XX  X$-,,;,,$;662=@@=,:$#@O@;>;$$12;,31=$,3,,,391$;,=*",
"$@@####@@@X  @===;>><,$-,;+X@$$$==$===;;:;=;,133>$=3,:,,36;;1;;*",
"$%==-=$$$X  X,3$X383>=$::$$-$$@@@+X@$$$$=;,=@=:,-=;111134;*21;-$",
"==;,,=$$$X .$,+ 17383$=31$@X.@$$$$$$@#$===:,$X$;1,=$=:1,$@12>;$$",
";-;;;=@@X @-1=X;5148;@-<$XX+@=;;::,,$$>;==$$==$-==13;=$X$;2,==@*",
";;$=;$XX.@;,3==63,83+$;XX@$$$;;;,233;$,11,;;@X#->:,,=;-=;:;=$@$-",
">1=$@@  @:,,,=-2347@.;#.=,1,,,;=,353>=,31:;,=  $><:=;;=;;;=$X+*-",
"31=#X X#==$,>@$;50> O$@$,111351,34431,331;;,; X$========$@+.+#->",
"1:$@XX$,* $61;;,5=OOX$:,131,32154443,1341;,1==11=@O#@@@@@X X+*;,",
";=$@X$,3$Xwr6:-;*@$@@:,383;=;,531331:;384,,;;1,;;=X        X$;21",
"=;@XX;q2X>q68,$@$=@X=,3691@@:381,31,>;,331,=,3,-,,$       X$=,2,",
"%%.#-45$$q5181@$=@@$;3784>*$;33;=,,;=:,>13,$;3,;;;=@      @$-<3,",
"%@$18q,=,3354===@#;-,344783==,;@@==$$-,,;;=$=,,:=**@     X$=>34;",
"@-,165-;,148,@#@@;111643663=@=@ X@@@@*>:$@;61;;;=*$$X   XX$,331*",
"@-3,,-$;1473$@@@;333343331>$X@XX+@@@O@$$X@,63,:,$X@=O  X@$=<33,$",
"==>,,;@$181$O*$@;3633673,;$XX@$$;;=$X @$@$>13331$@$=X  X$=:133=@",
"=>8885;$=:$$$$=;:33,374,*@X@$==;11;=$+X+@=;1333,;;1;O X@$-,111=$",
",787896=X=;$@$14:;>363,$OO$==@$33>:==;X @;;>3331;;<,@.X$-;;<<<1;",
"675138,$$=$$$,8q1$=14>#X@$,1;@X;1;,:$:$ X$=,5631,;>;@X@$=;;13111",
"33>34>#*=@$-=,8q;X@:=..$:::55;*@X=-----X X@:34331,,=X@====;131,,",
";>,3$O$$O*,1,,11,@+$+.@>:;,3;$;$+@=3q,-X O$:133311;$+X$$$#;463,=",
";;,$XO@@;4343;=1=$+.+$-;;15;@#O$;$>131-+ +=;135331;$X$=@X@,333=$",
"*#@$@@=11,362,2=;@X+=>;@>5-O*@ $1;>;,,-+X#-;,5421;>++$$$$*,11,;;"
};
