# Blender v2.81 (sub 16) OBJ File: 'rip.blend'
# www.blender.org
mtllib assets/rip.mtl
o Cube
v 87.082794 -3.500000 -109.397026
v 87.082794 -3.500000 -79.397026
v 87.082794 -18.500000 -79.397026
v 57.082794 -3.500000 -79.397026
v 4.360115 0.896949 -1.295593
v 4.028656 1.068523 -1.206779
v 3.123100 1.068523 -0.964134
v 2.670326 0.662574 -0.842812
v 3.123100 0.256624 -0.964134
v 4.028656 0.256624 -1.206779
v 4.360115 0.428199 -1.295593
v 3.179405 0.896949 -3.340637
v 2.936760 1.068523 -3.097992
v 2.273857 1.068523 -2.435081
v 1.942398 0.662574 -2.103622
v 2.273857 0.256624 -2.435081
v 2.936760 0.256624 -3.097992
v 3.179405 0.428199 -3.340637
v 1.134369 0.896949 -4.521339
v 1.045555 1.068523 -4.189880
v 0.802910 1.068523 -3.284325
v 0.681587 0.662574 -2.831543
v 0.802910 0.256624 -3.284325
v 1.045555 0.256624 -4.189880
v 1.134369 0.428199 -4.521339
v -1.227051 0.896949 -4.521339
v -1.138237 1.068523 -4.189880
v -0.895592 1.068523 -3.284325
v -0.774269 0.662574 -2.831543
v -0.895592 0.256624 -3.284325
v -1.138237 0.256624 -4.189880
v -1.227051 0.428199 -4.521339
v -3.272095 0.896949 -3.340630
v -3.029449 1.068523 -3.097984
v -2.366539 1.068523 -2.435081
v -2.035080 0.662574 -2.103622
v -2.366539 0.256624 -2.435081
v -3.029449 0.256624 -3.097984
v -3.272095 0.428199 -3.340630
v -4.452797 0.896949 -1.295593
v -4.121338 1.068523 -1.206779
v -3.215782 1.068523 -0.964134
v -2.763008 0.662574 -0.842812
v -3.215782 0.256624 -0.964134
v -4.121338 0.256624 -1.206779
v -4.452797 0.428199 -1.295593
v -4.452797 0.896949 1.065826
v -4.121338 1.068523 0.977013
v -3.215782 1.068523 0.734367
v -2.763008 0.662574 0.613045
v -3.215782 0.256624 0.734367
v -4.121338 0.256624 0.977013
v -4.452797 0.428199 1.065826
v -3.272095 0.896949 3.110863
v -3.029449 1.068523 2.868217
v -2.366539 1.068523 2.205315
v -2.035080 0.662574 1.873856
v -2.366539 0.256624 2.205315
v -3.029449 0.256624 2.868217
v -3.272095 0.428199 3.110863
v -1.227051 0.896949 4.291573
v -1.138237 1.068523 3.960114
v -0.895592 1.068523 3.054558
v -0.774269 0.662574 2.601784
v -0.895592 0.256624 3.054558
v -1.138237 0.256624 3.960114
v -1.227051 0.428199 4.291573
v 1.134361 0.896949 4.291573
v 1.045547 1.068523 3.960114
v 0.802910 1.068523 3.054558
v 0.681587 0.662574 2.601784
v 0.802910 0.256624 3.054558
v 1.045547 0.256624 3.960114
v 1.134361 0.428199 4.291573
v 3.179405 0.896949 3.110870
v 2.936760 1.068523 2.868225
v 2.273849 1.068523 2.205315
v 1.942398 0.662574 1.873856
v 2.273849 0.256624 2.205315
v 2.936760 0.256624 2.868225
v 3.179405 0.428199 3.110870
v 4.360115 0.896949 1.065826
v 4.028656 1.068523 0.977013
v 3.123100 1.068523 0.734367
v 2.670326 0.662574 0.613045
v 3.123100 0.256624 0.734367
v 4.028656 0.256624 0.977013
v 4.360115 0.428199 1.065826
vt 0.625000 0.833333
vt 0.541667 0.666667
vt 0.625000 0.666667
vt 0.458333 0.833333
vt 0.541667 1.000000
vt 0.458333 1.000000
vt 0.541667 0.416667
vt 0.458333 0.583333
vt 0.458333 0.416667
vt 0.541667 0.333333
vt 0.458333 0.333333
vt 0.458333 0.000000
vt 0.541667 0.166667
vt 0.458333 0.166667
vt 0.541667 0.583333
vt 0.625000 0.166667
vt 0.625000 0.000000
vt 0.541667 0.000000
vt 0.625000 1.000000
vt 0.541667 0.833333
vt 0.625000 0.416667
vt 0.625000 0.333333
vt 0.625000 0.583333
vt 0.708333 0.666667
vt 0.708333 0.833333
vt 0.708333 0.166667
vt 0.708333 0.000000
vt 0.708333 1.000000
vt 0.708333 0.416667
vt 0.708333 0.333333
vt 0.791667 0.583333
vt 0.708333 0.583333
vt 0.791667 0.833333
vt 0.791667 0.666667
vt 0.791667 0.333333
vt 0.791667 0.166667
vt 0.791667 0.000000
vt 0.791667 1.000000
vt 0.791667 0.416667
vt 0.875000 0.583333
vt 0.875000 0.833333
vt 0.875000 0.666667
vt 0.875000 0.166667
vt 0.875000 0.000000
vt 0.875000 1.000000
vt 0.875000 0.416667
vt 0.958333 0.666667
vt 0.958333 0.833333
vt 0.958333 0.166667
vt 0.875000 0.333333
vt 0.958333 0.000000
vt 0.958333 0.416667
vt 0.958333 0.333333
vt 0.064345 0.738724
vt 0.981012 0.822057
vt 0.981012 0.738724
vt 0.041667 0.833333
vt 0.041667 0.666667
vt 0.041667 0.333333
vt 0.041667 0.166667
vt 0.041667 0.000000
vt 0.041667 1.000000
vt 0.058046 0.683350
vt 0.974712 0.683350
vt 0.058046 0.600017
vt 0.974712 0.600017
vt 0.125000 0.583333
vt 0.041667 0.583333
vt 0.125000 0.666667
vt 0.125000 0.333333
vt 0.125000 0.166667
vt 0.125000 0.000000
vt 0.125000 1.000000
vt 0.125000 0.833333
vt 0.125000 0.416667
vt 0.041667 0.416667
vt 0.208333 0.666667
vt 0.208333 0.333333
vt 0.208333 0.166667
vt 0.208333 0.000000
vt 0.208333 0.833333
vt 0.208333 0.416667
vt 0.291667 0.583333
vt 0.208333 0.583333
vt 0.291667 0.666667
vt 0.291667 0.333333
vt 0.291667 0.166667
vt 0.291667 0.000000
vt 0.291667 1.000000
vt 0.291667 0.833333
vt 0.291667 0.416667
vt 0.375000 0.583333
vt 0.375000 0.666667
vt 0.375000 0.333333
vt 0.375000 0.166667
vt 0.375000 0.000000
vt 0.375000 1.000000
vt 0.375000 0.833333
vt 0.375000 0.416667
vt 0.458333 0.666667
vt 0.958333 0.583333
vt 0.958333 1.000000
vt 0.064345 0.822057
vt 0.208333 1.000000
vn 0.0000 1.0000 0.0000
vn -0.6676 0.7446 0.0000
vn 1.0000 0.0000 0.0000
vn 0.4597 -0.8881 0.0000
vn -0.6676 -0.7446 0.0000
vn 0.3981 0.8881 -0.2298
vn 0.0000 -1.0000 -0.0000
vn -0.5781 -0.7446 0.3338
vn -0.5781 0.7446 0.3338
vn 0.8660 0.0000 -0.5000
vn 0.3981 -0.8881 -0.2298
vn 0.2298 0.8881 -0.3981
vn -0.3338 -0.7446 0.5781
vn -0.3338 0.7446 0.5781
vn 0.5000 0.0000 -0.8660
vn 0.2298 -0.8881 -0.3981
vn 0.0000 0.8881 -0.4597
vn 0.0000 -0.7446 0.6676
vn 0.0000 0.7446 0.6676
vn 0.0000 0.0000 -1.0000
vn 0.0000 -0.8881 -0.4597
vn -0.2298 0.8881 -0.3981
vn 0.3338 -0.7446 0.5781
vn 0.3338 0.7446 0.5781
vn -0.5000 0.0000 -0.8660
vn -0.2298 -0.8881 -0.3981
vn -0.3981 0.8881 -0.2298
vn 0.5781 -0.7446 0.3338
vn 0.5781 0.7446 0.3338
vn -0.8660 0.0000 -0.5000
vn -0.3981 -0.8881 -0.2298
vn -0.4597 0.8881 0.0000
vn 0.6676 -0.7446 0.0000
vn 0.6676 0.7446 0.0000
vn -1.0000 0.0000 0.0000
vn -0.4597 -0.8881 0.0000
vn -0.3981 0.8881 0.2298
vn 0.5781 -0.7446 -0.3338
vn 0.5781 0.7446 -0.3338
vn -0.8660 0.0000 0.5000
vn -0.3981 -0.8881 0.2298
vn -0.2298 0.8881 0.3981
vn 0.3338 -0.7446 -0.5781
vn 0.3338 0.7446 -0.5781
vn -0.5000 0.0000 0.8660
vn -0.2298 -0.8881 0.3981
vn 0.0000 0.8881 0.4597
vn 0.0000 -0.7446 -0.6676
vn 0.0000 0.7446 -0.6676
vn 0.0000 0.0000 1.0000
vn 0.0000 -0.8881 0.4597
vn 0.2298 0.8881 0.3981
vn -0.3338 -0.7446 -0.5781
vn -0.3338 0.7446 -0.5781
vn 0.5000 0.0000 0.8660
vn 0.2298 -0.8881 0.3981
vn 0.3981 0.8881 0.2298
vn -0.5781 -0.7446 -0.3338
vn -0.5781 0.7446 -0.3338
vn 0.8660 0.0000 0.5000
vn 0.3981 -0.8881 0.2298
vn 0.4597 0.8881 0.0000
usemtl Box
s off
f 14/1/1 6/2/1 13/3/1
f 84/4/2 8/5/2 85/6/2
f 11/7/3 82/8/3 88/9/3
f 10/10/4 88/9/4 87/11/4
f 85/12/5 9/13/5 86/14/5
f 5/15/6 13/3/6 6/2/6
f 16/16/7 10/10/7 9/13/7
f 15/17/8 9/13/8 8/18/8
f 15/19/9 7/20/9 14/1/9
f 18/21/10 5/15/10 11/7/10
f 17/22/11 11/7/11 10/10/11
f 12/23/12 20/24/12 13/3/12
f 21/25/1 13/3/1 20/24/1
f 23/26/7 17/22/7 16/16/7
f 22/27/13 16/16/13 15/17/13
f 22/28/14 14/1/14 21/25/14
f 25/29/15 12/23/15 18/21/15
f 24/30/16 18/21/16 17/22/16
f 26/31/17 20/24/17 19/32/17
f 28/33/1 20/24/1 27/34/1
f 31/35/7 23/26/7 30/36/7
f 30/36/18 22/27/18 29/37/18
f 29/38/19 21/25/19 28/33/19
f 32/39/20 19/32/20 25/29/20
f 31/35/21 25/29/21 24/30/21
f 33/40/22 27/34/22 26/31/22
f 35/41/1 27/34/1 34/42/1
f 37/43/7 31/35/7 30/36/7
f 36/44/23 30/36/23 29/37/23
f 36/45/24 28/33/24 35/41/24
f 39/46/25 26/31/25 32/39/25
f 31/35/26 39/46/26 32/39/26
f 33/40/27 41/47/27 34/42/27
f 42/48/1 34/42/1 41/47/1
f 44/49/7 38/50/7 37/43/7
f 44/49/28 36/44/28 43/51/28
f 42/48/29 36/45/29 35/41/29
f 46/52/30 33/40/30 39/46/30
f 45/53/31 39/46/31 38/50/31
f 47/54/32 41/55/32 40/56/32
f 49/57/1 41/47/1 48/58/1
f 52/59/7 44/49/7 51/60/7
f 51/60/33 43/51/33 50/61/33
f 50/62/34 42/48/34 49/57/34
f 53/63/35 40/56/35 46/64/35
f 52/65/36 46/64/36 45/66/36
f 54/67/37 48/58/37 47/68/37
f 55/69/1 49/57/1 48/58/1
f 59/70/7 51/60/7 58/71/7
f 57/72/38 51/60/38 50/61/38
f 57/73/39 49/57/39 56/74/39
f 60/75/40 47/68/40 53/76/40
f 52/59/41 60/75/41 53/76/41
f 54/67/42 62/77/42 55/69/42
f 62/77/1 56/74/1 55/69/1
f 66/78/7 58/71/7 65/79/7
f 65/79/43 57/72/43 64/80/43
f 63/81/44 57/73/44 56/74/44
f 67/82/45 54/67/45 60/75/45
f 66/78/46 60/75/46 59/70/46
f 68/83/47 62/77/47 61/84/47
f 69/85/1 63/81/1 62/77/1
f 73/86/7 65/79/7 72/87/7
f 71/88/48 65/79/48 64/80/48
f 71/89/49 63/81/49 70/90/49
f 74/91/50 61/84/50 67/82/50
f 73/86/51 67/82/51 66/78/51
f 75/92/52 69/85/52 68/83/52
f 76/93/1 70/90/1 69/85/1
f 80/94/7 72/87/7 79/95/7
f 78/96/53 72/87/53 71/88/53
f 78/97/54 70/90/54 77/98/54
f 81/99/55 68/83/55 74/91/55
f 80/94/56 74/91/56 73/86/56
f 82/8/57 76/93/57 75/92/57
f 84/4/1 76/93/1 83/100/1
f 86/14/7 80/94/7 79/95/7
f 86/14/58 78/96/58 85/12/58
f 84/4/59 78/97/59 77/98/59
f 88/9/60 75/92/60 81/99/60
f 80/94/61 88/9/61 81/99/61
f 5/15/62 83/100/62 82/8/62
f 83/100/1 7/20/1 84/4/1
f 86/14/7 10/10/7 87/11/7
f 14/1/1 7/20/1 6/2/1
f 84/4/2 7/20/2 8/5/2
f 11/7/3 5/15/3 82/8/3
f 10/10/4 11/7/4 88/9/4
f 85/12/5 8/18/5 9/13/5
f 5/15/6 12/23/6 13/3/6
f 16/16/7 17/22/7 10/10/7
f 15/17/8 16/16/8 9/13/8
f 15/19/9 8/5/9 7/20/9
f 18/21/10 12/23/10 5/15/10
f 17/22/11 18/21/11 11/7/11
f 12/23/12 19/32/12 20/24/12
f 21/25/1 14/1/1 13/3/1
f 23/26/7 24/30/7 17/22/7
f 22/27/13 23/26/13 16/16/13
f 22/28/14 15/19/14 14/1/14
f 25/29/15 19/32/15 12/23/15
f 24/30/16 25/29/16 18/21/16
f 26/31/17 27/34/17 20/24/17
f 28/33/1 21/25/1 20/24/1
f 31/35/7 24/30/7 23/26/7
f 30/36/18 23/26/18 22/27/18
f 29/38/19 22/28/19 21/25/19
f 32/39/20 26/31/20 19/32/20
f 31/35/21 32/39/21 25/29/21
f 33/40/22 34/42/22 27/34/22
f 35/41/1 28/33/1 27/34/1
f 37/43/7 38/50/7 31/35/7
f 36/44/23 37/43/23 30/36/23
f 36/45/24 29/38/24 28/33/24
f 39/46/25 33/40/25 26/31/25
f 31/35/26 38/50/26 39/46/26
f 33/40/27 40/101/27 41/47/27
f 42/48/1 35/41/1 34/42/1
f 44/49/7 45/53/7 38/50/7
f 44/49/28 37/43/28 36/44/28
f 42/48/29 43/102/29 36/45/29
f 46/52/30 40/101/30 33/40/30
f 45/53/31 46/52/31 39/46/31
f 47/54/32 48/103/32 41/55/32
f 49/57/1 42/48/1 41/47/1
f 52/59/7 45/53/7 44/49/7
f 51/60/33 44/49/33 43/51/33
f 50/62/34 43/102/34 42/48/34
f 53/63/35 47/54/35 40/56/35
f 52/65/36 53/63/36 46/64/36
f 54/67/37 55/69/37 48/58/37
f 55/69/1 56/74/1 49/57/1
f 59/70/7 52/59/7 51/60/7
f 57/72/38 58/71/38 51/60/38
f 57/73/39 50/62/39 49/57/39
f 60/75/40 54/67/40 47/68/40
f 52/59/41 59/70/41 60/75/41
f 54/67/42 61/84/42 62/77/42
f 62/77/1 63/81/1 56/74/1
f 66/78/7 59/70/7 58/71/7
f 65/79/43 58/71/43 57/72/43
f 63/81/44 64/104/44 57/73/44
f 67/82/45 61/84/45 54/67/45
f 66/78/46 67/82/46 60/75/46
f 68/83/47 69/85/47 62/77/47
f 69/85/1 70/90/1 63/81/1
f 73/86/7 66/78/7 65/79/7
f 71/88/48 72/87/48 65/79/48
f 71/89/49 64/104/49 63/81/49
f 74/91/50 68/83/50 61/84/50
f 73/86/51 74/91/51 67/82/51
f 75/92/52 76/93/52 69/85/52
f 76/93/1 77/98/1 70/90/1
f 80/94/7 73/86/7 72/87/7
f 78/96/53 79/95/53 72/87/53
f 78/97/54 71/89/54 70/90/54
f 81/99/55 75/92/55 68/83/55
f 80/94/56 81/99/56 74/91/56
f 82/8/57 83/100/57 76/93/57
f 84/4/1 77/98/1 76/93/1
f 86/14/7 87/11/7 80/94/7
f 86/14/58 79/95/58 78/96/58
f 84/4/59 85/6/59 78/97/59
f 88/9/60 82/8/60 75/92/60
f 80/94/61 87/11/61 88/9/61
f 5/15/62 6/2/62 83/100/62
f 83/100/1 6/2/1 7/20/1
f 86/14/7 9/13/7 10/10/7
