# Blender v2.79 (sub 0) OBJ File: ''
# www.blender.org
mtllib assets/skybox.mtl
o Cube
v 1500.000000 -1500.000000 -1500.0
v 1500.000000 -1500.000000 1500.0
v -1500.000001 -1500.000000 1500.0
v -1500.0 -1500.000000 -1500.0
v 1500.0 1500.000000 -1500.0
v 1500.0 1500.000000 1500.000006
v -1500.000004 1500.000000 1500.0
v -1500.0 1500.0 -1500.000000
vt 0.749950 0.333366
vt 0.999900 0.666633
vt 0.749950 0.666633
vt 0.250050 0.666633
vt 0.500000 0.333367
vt 0.500000 0.666633
vt 0.250050 0.999900
vt 0.500000 0.999900
vt 0.000100 0.333367
vt 0.000100 0.666634
vt 0.250050 0.000100
vt 0.250050 0.333367
vt 0.999900 0.333366
vt 0.500000 0.000100
vn 0.0000 1.0000 0.0000
vn 0.0000 -1.0000 0.0000
vn -1.0000 0.0000 0.0000
vn 0.0000 0.0000 -1.0000
vn 1.0000 0.0000 0.0000
vn -0.0000 -0.0000 1.0000
usemtl Material
s off
f 4/1/1 2/2/1 1/3/1
f 6/4/2 8/5/2 5/6/2
f 2/7/3 5/6/3 1/8/3
f 3/9/4 6/4/4 2/10/4
f 3/11/5 8/5/5 7/12/5
f 8/5/6 1/3/6 5/6/6
f 4/1/1 3/13/1 2/2/1
f 6/4/2 7/12/2 8/5/2
f 2/7/3 6/4/3 5/6/3
f 3/9/4 7/12/4 6/4/4
f 3/11/5 4/14/5 8/5/5
f 8/5/6 4/1/6 1/3/6
