# Blender v2.81 (sub 16) OBJ File: ''
# www.blender.org
mtllib assets/stairs.mtl
o stairs_AH_meshId0_name
v 0.700503 -0.333687 0.776581
v -0.699757 -0.333687 0.776581
v -0.699757 -0.439284 0.776581
v 0.700503 -0.439284 0.776581
v -0.699757 -0.345786 0.798266
v -0.699757 -0.345786 0.537655
v 0.700503 -0.345786 0.537655
v 0.700503 -0.345786 0.798266
v -0.699757 -0.318287 0.798266
v 0.700503 -0.318287 0.798266
v 0.700503 -0.318287 0.537655
v -0.699757 -0.318287 0.537655
v 0.700503 -0.345786 0.537655
v -0.699757 -0.345786 0.537655
v -0.699757 -0.318287 0.537655
v 0.700503 -0.318287 0.537655
v -0.699757 -0.345786 0.798266
v 0.700503 -0.345786 0.798266
v 0.700503 -0.318287 0.798266
v -0.699757 -0.318287 0.798266
v 0.700503 -0.212690 0.542031
v -0.699757 -0.212690 0.542031
v -0.699757 -0.318287 0.542031
v 0.700503 -0.318287 0.542031
v -0.699757 -0.224790 0.563716
v -0.699757 -0.224790 0.303105
v 0.700503 -0.224790 0.303105
v 0.700503 -0.224790 0.563716
v -0.699757 -0.197291 0.563716
v 0.700503 -0.197291 0.563716
v 0.700503 -0.197291 0.303105
v -0.699757 -0.197291 0.303105
v 0.700503 -0.224790 0.303105
v -0.699757 -0.224790 0.303105
v -0.699757 -0.197291 0.303105
v 0.700503 -0.197291 0.303105
v -0.699757 -0.224790 0.563716
v 0.700503 -0.224790 0.563716
v 0.700503 -0.197291 0.563716
v -0.699757 -0.197291 0.563716
v 0.700503 -0.091694 0.307481
v -0.699757 -0.091694 0.307481
v -0.699757 -0.197291 0.307481
v 0.700503 -0.197291 0.307481
v -0.699757 -0.103793 0.329166
v -0.699757 -0.103793 0.068555
v 0.700503 -0.103793 0.068555
v 0.700503 -0.103793 0.329166
v -0.699757 -0.076294 0.329166
v 0.700503 -0.076294 0.329166
v 0.700503 -0.076294 0.068555
v -0.699757 -0.076294 0.068555
v 0.700503 -0.103793 0.068555
v -0.699757 -0.103793 0.068555
v -0.699757 -0.076294 0.068555
v 0.700503 -0.076294 0.068555
v -0.699757 -0.103793 0.329166
v 0.700503 -0.103793 0.329166
v 0.700503 -0.076294 0.329166
v -0.699757 -0.076294 0.329166
v 0.700503 0.029303 0.072931
v -0.699757 0.029303 0.072931
v -0.699757 -0.076294 0.072931
v 0.700503 -0.076294 0.072931
v -0.699757 0.017203 0.094616
v -0.699757 0.017203 -0.165995
v 0.700503 0.017203 -0.165995
v 0.700503 0.017203 0.094616
v -0.699757 0.044703 0.094616
v 0.700503 0.044703 0.094616
v 0.700503 0.044703 -0.165995
v -0.699757 0.044703 -0.165995
v 0.700503 0.017203 -0.165995
v -0.699757 0.017203 -0.165995
v -0.699757 0.044703 -0.165995
v 0.700503 0.044703 -0.165995
v -0.699757 0.017203 0.094616
v 0.700503 0.017203 0.094616
v 0.700503 0.044703 0.094616
v -0.699757 0.044703 0.094616
v 0.700503 0.150300 -0.161619
v -0.699757 0.150300 -0.161619
v -0.699757 0.044703 -0.161619
v 0.700503 0.044703 -0.161619
v -0.699757 0.138200 -0.139934
v -0.699757 0.138200 -0.400545
v 0.700503 0.138200 -0.400545
v 0.700503 0.138200 -0.139934
v -0.699757 0.165699 -0.139934
v 0.700503 0.165699 -0.139934
v 0.700503 0.165699 -0.400545
v -0.699757 0.165699 -0.400545
v 0.700503 0.138200 -0.400545
v -0.699757 0.138200 -0.400545
v -0.699757 0.165699 -0.400545
v 0.700503 0.165699 -0.400545
v -0.699757 0.138200 -0.139934
v 0.700503 0.138200 -0.139934
v 0.700503 0.165699 -0.139934
v -0.699757 0.165699 -0.139934
v 0.700503 0.271296 -0.396169
v -0.699757 0.271296 -0.396169
v -0.699757 0.165699 -0.396169
v 0.700503 0.165699 -0.396169
v -0.699757 0.259197 -0.374484
v -0.699757 0.259197 -0.635095
v 0.700503 0.259197 -0.635095
v 0.700503 0.259197 -0.374484
v -0.699757 0.286696 -0.374484
v 0.700503 0.286696 -0.374484
v 0.700503 0.286696 -0.635095
v -0.699757 0.286696 -0.635095
v 0.700503 0.259197 -0.635095
v -0.699757 0.259197 -0.635095
v -0.699757 0.286696 -0.635095
v 0.700503 0.286696 -0.635095
v -0.699757 0.259197 -0.374484
v 0.700503 0.259197 -0.374484
v 0.700503 0.286696 -0.374484
v -0.699757 0.286696 -0.374484
v 0.700503 0.392293 -0.630719
v -0.699757 0.392293 -0.630719
v -0.699757 0.286696 -0.630719
v 0.700503 0.286696 -0.630719
v -0.699757 0.380193 -0.609034
v -0.699757 0.380193 -0.869645
v 0.700503 0.380193 -0.869645
v 0.700503 0.380193 -0.609034
v -0.699757 0.407692 -0.609034
v 0.700503 0.407692 -0.609034
v 0.700503 0.407692 -0.869645
v -0.699757 0.407692 -0.869645
v 0.700503 0.380193 -0.869645
v -0.699757 0.380193 -0.869645
v -0.699757 0.407692 -0.869645
v 0.700503 0.407692 -0.869645
v -0.699757 0.380193 -0.609034
v 0.700503 0.380193 -0.609034
v 0.700503 0.407692 -0.609034
v -0.699757 0.407692 -0.609034
v 0.694058 0.439284 -0.640176
v 0.776254 0.439284 -0.640176
v 0.776254 0.439284 -1.000000
v 0.694058 0.439284 -1.000000
v 0.694058 -0.407392 1.000000
v 0.694058 -0.407392 0.640176
v 0.776254 -0.407392 0.640176
v 0.776254 -0.407392 1.000000
v 0.776254 0.439284 -1.000000
v 0.776254 -0.407392 0.640176
v 0.694058 -0.407392 0.640176
v 0.694058 0.439284 -1.000000
v 0.694058 0.439284 -0.640176
v 0.694058 -0.407392 1.000000
v 0.776254 -0.407392 1.000000
v 0.776254 0.439284 -0.640176
v 0.776254 0.439284 -0.640176
v 0.776254 -0.407392 1.000000
v 0.776254 -0.407392 0.640176
v 0.776254 0.439284 -1.000000
v 0.694058 0.439284 -1.000000
v 0.694058 -0.407392 0.640176
v 0.694058 -0.407392 1.000000
v 0.694058 0.439284 -0.640176
v -0.776254 0.439281 -0.640176
v -0.694058 0.439281 -0.640176
v -0.694058 0.439281 -1.000000
v -0.776254 0.439281 -1.000000
v -0.776254 -0.407395 1.000000
v -0.776254 -0.407395 0.640176
v -0.694058 -0.407395 0.640176
v -0.694058 -0.407394 1.000000
v -0.694058 0.439281 -1.000000
v -0.694058 -0.407395 0.640176
v -0.776254 -0.407395 0.640176
v -0.776254 0.439281 -1.000000
v -0.776254 0.439281 -0.640176
v -0.776254 -0.407395 1.000000
v -0.694058 -0.407394 1.000000
v -0.694058 0.439281 -0.640176
v -0.694058 0.439281 -0.640176
v -0.694058 -0.407394 1.000000
v -0.694058 -0.407395 0.640176
v -0.694058 0.439281 -1.000000
v -0.776254 0.439281 -1.000000
v -0.776254 -0.407395 0.640176
v -0.776254 -0.407395 1.000000
v -0.776254 0.439281 -0.640176
vt 0.215203 0.161334
vt 0.215203 0.104416
vt 0.593959 0.104416
vt 0.593959 0.161334
vt 0.058780 0.150939
vt 0.117103 0.150939
vt 0.117103 0.217914
vt 0.058780 0.217914
vt 0.497682 0.883905
vt 0.497682 0.995410
vt 0.004542 0.995410
vt 0.004541 0.883905
vt 0.277614 0.015426
vt 0.277614 0.004799
vt 0.549158 0.004799
vt 0.549158 0.015426
vt 0.276294 0.004799
vt 0.276294 0.015426
vt 0.004751 0.015426
vt 0.004751 0.004799
vt 0.511615 0.656661
vt 0.511615 0.599531
vt 0.891777 0.599531
vt 0.891777 0.656661
vt 0.117515 0.150939
vt 0.175838 0.150939
vt 0.175838 0.217914
vt 0.117515 0.217914
vt 0.499047 0.659010
vt 0.499047 0.766381
vt 0.005906 0.766381
vt 0.005906 0.659010
vt 0.276294 0.026053
vt 0.276294 0.036680
vt 0.004751 0.036680
vt 0.004751 0.026053
vt 0.276294 0.015426
vt 0.276294 0.026053
vt 0.004751 0.026053
vt 0.004751 0.015426
vt 0.593959 0.161334
vt 0.593959 0.104416
vt 0.972715 0.104416
vt 0.972715 0.161334
vt 0.059057 0.406630
vt 0.117380 0.406630
vt 0.117380 0.473605
vt 0.059057 0.473605
vt 0.993818 0.884030
vt 0.993818 0.991401
vt 0.500678 0.991401
vt 0.500677 0.884030
vt 0.276960 0.059718
vt 0.276960 0.070345
vt 0.005416 0.070345
vt 0.005416 0.059718
vt 0.549158 0.026053
vt 0.549158 0.036679
vt 0.277614 0.036679
vt 0.277614 0.026053
vt 0.513690 0.597542
vt 0.513690 0.540685
vt 0.892040 0.540685
vt 0.892040 0.597542
vt 0.901866 0.507761
vt 0.960189 0.507761
vt 0.960189 0.574736
vt 0.901866 0.574736
vt 0.497908 0.543370
vt 0.497908 0.650741
vt 0.004767 0.650741
vt 0.004767 0.543370
vt 0.276960 0.080972
vt 0.276960 0.091598
vt 0.005416 0.091599
vt 0.005416 0.080972
vt 0.276960 0.070345
vt 0.276960 0.080972
vt 0.005416 0.080972
vt 0.005416 0.070345
vt 0.593959 0.218253
vt 0.593959 0.161335
vt 0.972715 0.161334
vt 0.972715 0.218253
vt 0.901115 0.583320
vt 0.959438 0.583320
vt 0.959438 0.650295
vt 0.901115 0.650295
vt 0.994745 0.656886
vt 0.994746 0.764256
vt 0.501605 0.764256
vt 0.501605 0.656886
vt 0.276294 0.036680
vt 0.276294 0.047306
vt 0.004751 0.047307
vt 0.004751 0.036680
vt 0.549158 0.036679
vt 0.549158 0.047306
vt 0.277614 0.047306
vt 0.277614 0.036679
vt 0.595651 0.072808
vt 0.595651 0.015745
vt 0.975376 0.015745
vt 0.975376 0.072808
vt 0.000457 0.150939
vt 0.058780 0.150939
vt 0.058780 0.217914
vt 0.000457 0.217914
vt 0.499538 0.768391
vt 0.499538 0.875761
vt 0.006398 0.875761
vt 0.006398 0.768391
vt 0.005416 0.059718
vt 0.005416 0.049091
vt 0.276960 0.049091
vt 0.276960 0.059718
vt 0.549158 0.015426
vt 0.549158 0.026053
vt 0.277614 0.026053
vt 0.277614 0.015426
vt 0.215203 0.218253
vt 0.215203 0.161335
vt 0.593959 0.161334
vt 0.593959 0.218253
vt 0.000734 0.406630
vt 0.059057 0.406630
vt 0.059057 0.473605
vt 0.000734 0.473605
vt 0.992679 0.768391
vt 0.992679 0.875761
vt 0.499538 0.875761
vt 0.499539 0.768391
vt 0.276960 0.091599
vt 0.276960 0.102225
vt 0.005416 0.102225
vt 0.005416 0.091599
vt 0.549158 0.047306
vt 0.549158 0.057933
vt 0.277614 0.057933
vt 0.277614 0.047306
vt 0.999170 0.220925
vt 0.821102 0.220927
vt 0.821102 0.279168
vt 0.999170 0.279166
vt 0.000000 0.279168
vt 0.000000 0.335110
vt 0.178069 0.335111
vt 0.178069 0.279170
vt 0.999171 0.335110
vt 0.999171 0.279168
vt 0.178069 0.279170
vt 0.178069 0.335111
vt 0.821102 0.279168
vt 0.821102 0.220927
vt 0.000000 0.220926
vt 0.000000 0.279168
vt 1.000000 0.441489
vt 0.823466 0.335111
vt 0.000000 0.335113
vt 0.176533 0.441490
vt 0.823467 0.539817
vt 1.000000 0.441494
vt 0.176533 0.441490
vt 0.000000 0.539813
vt 0.999170 0.279168
vt 0.821102 0.279169
vt 0.821102 0.335111
vt 0.999170 0.335110
vt 0.000000 0.220925
vt 0.000000 0.279166
vt 0.178069 0.279168
vt 0.178069 0.220927
vt 0.999171 0.279167
vt 0.999171 0.220926
vt 0.178069 0.220927
vt 0.178069 0.279168
vt 0.821102 0.335111
vt 0.821102 0.279169
vt 0.000000 0.279169
vt 0.000000 0.335111
vt 1.000000 0.441490
vt 0.823466 0.335112
vt 0.000000 0.335111
vt 0.176533 0.441489
vt 0.823467 0.539817
vt 1.000000 0.441494
vt 0.176533 0.441490
vt 0.000000 0.539813
vn 0.0000 0.0000 1.0000
vn 0.0000 -1.0000 -0.0000
vn 0.0000 1.0000 0.0000
vn 0.0000 0.0000 -1.0000
vn 0.0000 -0.8886 -0.4587
vn 0.0000 0.8886 0.4587
vn 1.0000 0.0000 0.0000
vn -1.0000 0.0000 0.0000
usemtl stairs_AH
s off
f 4/1/1 1/2/1 2/3/1
f 2/3/1 3/4/1 4/1/1
f 8/5/2 5/6/2 6/7/2
f 6/7/2 7/8/2 8/5/2
f 12/9/3 9/10/3 10/11/3
f 10/11/3 11/12/3 12/9/3
f 16/13/4 13/14/4 14/15/4
f 14/15/4 15/16/4 16/13/4
f 20/17/1 17/18/1 18/19/1
f 18/19/1 19/20/1 20/17/1
f 24/21/1 21/22/1 22/23/1
f 22/23/1 23/24/1 24/21/1
f 28/25/2 25/26/2 26/27/2
f 26/27/2 27/28/2 28/25/2
f 32/29/3 29/30/3 30/31/3
f 30/31/3 31/32/3 32/29/3
f 36/33/4 33/34/4 34/35/4
f 34/35/4 35/36/4 36/33/4
f 40/37/1 37/38/1 38/39/1
f 38/39/1 39/40/1 40/37/1
f 44/41/1 41/42/1 42/43/1
f 42/43/1 43/44/1 44/41/1
f 48/45/2 45/46/2 46/47/2
f 46/47/2 47/48/2 48/45/2
f 52/49/3 49/50/3 50/51/3
f 50/51/3 51/52/3 52/49/3
f 56/53/4 53/54/4 54/55/4
f 54/55/4 55/56/4 56/53/4
f 60/57/1 57/58/1 58/59/1
f 58/59/1 59/60/1 60/57/1
f 64/61/1 61/62/1 62/63/1
f 62/63/1 63/64/1 64/61/1
f 68/65/2 65/66/2 66/67/2
f 66/67/2 67/68/2 68/65/2
f 72/69/3 69/70/3 70/71/3
f 70/71/3 71/72/3 72/69/3
f 76/73/4 73/74/4 74/75/4
f 74/75/4 75/76/4 76/73/4
f 80/77/1 77/78/1 78/79/1
f 78/79/1 79/80/1 80/77/1
f 84/81/1 81/82/1 82/83/1
f 82/83/1 83/84/1 84/81/1
f 88/85/2 85/86/2 86/87/2
f 86/87/2 87/88/2 88/85/2
f 92/89/3 89/90/3 90/91/3
f 90/91/3 91/92/3 92/89/3
f 96/93/4 93/94/4 94/95/4
f 94/95/4 95/96/4 96/93/4
f 100/97/1 97/98/1 98/99/1
f 98/99/1 99/100/1 100/97/1
f 104/101/1 101/102/1 102/103/1
f 102/103/1 103/104/1 104/101/1
f 108/105/2 105/106/2 106/107/2
f 106/107/2 107/108/2 108/105/2
f 112/109/3 109/110/3 110/111/3
f 110/111/3 111/112/3 112/109/3
f 116/113/4 113/114/4 114/115/4
f 114/115/4 115/116/4 116/113/4
f 120/117/1 117/118/1 118/119/1
f 118/119/1 119/120/1 120/117/1
f 124/121/1 121/122/1 122/123/1
f 122/123/1 123/124/1 124/121/1
f 128/125/2 125/126/2 126/127/2
f 126/127/2 127/128/2 128/125/2
f 132/129/3 129/130/3 130/131/3
f 130/131/3 131/132/3 132/129/3
f 136/133/4 133/134/4 134/135/4
f 134/135/4 135/136/4 136/133/4
f 140/137/1 137/138/1 138/139/1
f 138/139/1 139/140/1 140/137/1
f 144/141/3 141/142/3 142/143/3
f 142/143/3 143/144/3 144/141/3
f 148/145/2 145/146/2 146/147/2
f 146/147/2 147/148/2 148/145/2
f 152/149/5 149/150/5 150/151/5
f 150/151/5 151/152/5 152/149/5
f 156/153/6 153/154/6 154/155/6
f 154/155/6 155/156/6 156/153/6
f 160/157/7 157/158/7 158/159/7
f 158/159/7 159/160/7 160/157/7
f 164/161/8 161/162/8 162/163/8
f 162/163/8 163/164/8 164/161/8
f 168/165/3 165/166/3 166/167/3
f 166/167/3 167/168/3 168/165/3
f 172/169/2 169/170/2 170/171/2
f 170/171/2 171/172/2 172/169/2
f 176/173/5 173/174/5 174/175/5
f 174/175/5 175/176/5 176/173/5
f 180/177/6 177/178/6 178/179/6
f 178/179/6 179/180/6 180/177/6
f 184/181/7 181/182/7 182/183/7
f 182/183/7 183/184/7 184/181/7
f 188/185/8 185/186/8 186/187/8
f 186/187/8 187/188/8 188/185/8
