# Blender v2.81 (sub 16) OBJ File: 'tamer.blend'
# www.blender.org
mtllib assets/tamer.mtl
o Cube
v 3.000000 2.000000 0.000000
v 3.000000 2.000000 -3.000000
v 3.000000 -0.000000 0.000000
v 3.000000 0.000000 -3.000000
v 0.000000 2.000000 0.000000
v 0.000000 2.000000 -3.000000
v 0.000000 -0.000000 0.000000
v 0.000000 0.000000 -3.000000
vt 1.000000 0.999999
vt -0.000001 0.000001
vt -0.000001 1.000001
vt 0.250043 0.000087
vt 0.500000 0.250043
vt 0.500000 0.000087
vt -0.000002 0.000000
vt 0.999998 1.000003
vt 1.000002 -0.000001
vt 0.999999 1.000002
vt 0.000001 -0.000000
vt 0.000000 1.000000
vt 1.000000 0.999999
vt 0.000003 0.000000
vt -0.000002 0.999999
vt 0.994519 0.995641
vt -0.005091 -0.000818
vt 0.000028 0.997988
vt 1.000000 0.000001
vt 0.250043 0.250043
vt 0.000006 0.999996
vt 0.999998 -0.000001
vt 1.000002 -0.000000
vt 1.000818 -0.007118
vn 0.0000 0.0000 1.0000
vn 0.0000 1.0000 0.0000
vn -1.0000 0.0000 0.0000
vn 0.0000 0.0000 -1.0000
vn 1.0000 0.0000 0.0000
vn 0.0000 -1.0000 0.0000
usemtl BrickWall
s off
f 5/1/1 3/2/1 1/3/1
f 8/4/2 3/5/2 4/6/2
f 7/7/3 6/8/3 8/9/3
f 2/10/4 8/11/4 6/12/4
f 1/13/5 4/14/5 2/15/5
f 2/16/6 5/17/6 6/18/6
f 5/1/1 7/19/1 3/2/1
f 8/4/2 7/20/2 3/5/2
f 7/7/3 5/21/3 6/8/3
f 2/10/4 4/22/4 8/11/4
f 1/13/5 3/23/5 4/14/5
f 2/16/6 1/24/6 5/17/6
